<svg id="Layer_1" data-name="Layer 1" xmlns="http://www.w3.org/2000/svg" xmlns:xlink="http://www.w3.org/1999/xlink" viewBox="0 0 900 845"><defs><style>.cls-1{fill:none;}.cls-2{clip-path:url(#clip-path);}.cls-3{fill:#cce9da;}.cls-18,.cls-4{fill:#009247;}.cls-5{opacity:0.1;isolation:isolate;}.cls-6{fill:#fff;}.cls-7{fill:#263238;}.cls-8,.cls-9{fill:#e0e0e0;}.cls-10,.cls-11,.cls-18,.cls-19,.cls-9{fill-rule:evenodd;}.cls-10,.cls-12{fill:#ebebeb;}.cls-11,.cls-13{fill:#f5f5f5;}.cls-14,.cls-19{fill:#455a64;}.cls-15{opacity:0.3;}.cls-16{opacity:0.8;}.cls-17{opacity:0.6;}</style><clipPath id="clip-path"><rect class="cls-1" width="900" height="844.19"/></clipPath></defs><g class="cls-2"><path class="cls-3" d="M5.58,521.08C27.69,403.16,133.73,300.3,258.76,290.46c68.14-5.28,136.63,15.22,204.48,7.4,57.52-6.86,110.44-33.5,148.86-74.94,56-60.88,75-141,134.35-198.95C828.21-55.95,970.9-57.19,1070.39,1.59S1230,160,1257.57,268.52l1.08,33c6,112.61-25.05,243.64-93.46,344C1095.86,747.22,1050.28,789.37,924,862.33c-107.27,62.09-317.32,89.38-442.73,92.26S227,921.81,132.65,842.79-16.56,639,5.58,521.08Z"/><path class="cls-3" d="M414.33,193.41c-3.54-23.34,13.38-45,37.79-48.4s47.08,12.79,50.62,36.13-13.37,45-37.79,48.39S417.88,216.74,414.33,193.41Z"/><path class="cls-4" d="M577.07,477.46a10.09,10.09,0,0,0-.54-1,10.84,10.84,0,0,0-.55-1,9.21,9.21,0,0,0-.55-1,8.38,8.38,0,0,0-.55-1,11,11,0,0,0-.54-1,7.64,7.64,0,0,0-.54-1c-.17-.35-.35-.7-.55-1a7.58,7.58,0,0,0-.55-1,10,10,0,0,0-.55-1A11.42,11.42,0,0,0,570,465.2l26.16-79.3c.14-.43,0-.7.14-1.12a2.23,2.23,0,0,0,.2-1.32c.07-.21,0-.69.08-.9a10.75,10.75,0,0,0,0-1.39,1.55,1.55,0,0,1-.14-1,5.53,5.53,0,0,0-.52-1.29c-.15-.27-.22-.74-.36-1l-.59-1.09c0-.12-.08-.3-.24-.43l-.28-.55h-.05c0-.13-.07-.3-.23-.44l-.29-.54c0-.12-.09-.3-.24-.44l-.29-.54c0-.13-.08-.3-.24-.44l-.28-.55c0-.12-.08-.3-.24-.44l-.29-.54v0c0-.13-.08-.3-.24-.44l-.28-.54,0,0c0-.12-.07-.3-.23-.44l-.29-.54v0c0-.13-.08-.3-.24-.44l-.28-.54-.05,0c0-.13-.07-.3-.23-.44l-.3-.53c0-.13-.08-.31-.24-.44l-.32-.6c.07-.21-.28-.54-.5-.6a.28.28,0,0,0,0-.09.31.31,0,0,0,0-.08l0-.06-.08,0c-.36-.33-.52-.61-.87-.94a13,13,0,0,1-.79-1.15c-.21-.06-.58-.39-.79-.45-.37-.33-1-.52-1.15-.8a2,2,0,0,1-1-.51l-3.64-1a1.41,1.41,0,0,1-.93,0,5.65,5.65,0,0,0-1.44.06c-.42-.12-.7,0-1.07.39a2.55,2.55,0,0,0-1.42.05c-.27.15-.79.25-1.07.39a2.38,2.38,0,0,1-1.27.32,3.25,3.25,0,0,1-.93.67c-.28.14-.35.35-.56.29L460.3,437a12.22,12.22,0,0,0-5.26,7.2,11.27,11.27,0,0,0,1.22,8.58,6.15,6.15,0,0,0,.56,1,6,6,0,0,0,.55,1,6.89,6.89,0,0,0,.55,1,101.88,101.88,0,0,0,1.11,2.07,6.89,6.89,0,0,0,.55,1,7.37,7.37,0,0,0,.56,1,6,6,0,0,0,.55,1,6.15,6.15,0,0,0,.56,1,12.4,12.4,0,0,0,7.65,6.6l59.49,17-2.63,8a11.83,11.83,0,0,0-.58,5,11.52,11.52,0,0,0,1.57,4.73c.17.34.35.68.53,1a9.64,9.64,0,0,0,.54,1,10.6,10.6,0,0,0,.54,1,9.64,9.64,0,0,0,.54,1c.16.34.34.68.53,1a8.86,8.86,0,0,0,.54,1c.16.34.34.67.53,1a9.64,9.64,0,0,0,.54,1c.16.33.34.67.53,1a11.71,11.71,0,0,0,4.91,5.16,12.57,12.57,0,0,0,7.14,1.49,13.1,13.1,0,0,0,6.88-2.7,12.63,12.63,0,0,0,4.24-5.94l5.19-15.76,2.16.61a12.63,12.63,0,0,0,4.86.49,13.06,13.06,0,0,0,4.72-1.39,12.84,12.84,0,0,0,3.86-3,12.47,12.47,0,0,0,2.4-4.21,11.75,11.75,0,0,0,.61-4.91A11.46,11.46,0,0,0,577.07,477.46Zm-27.18-57.08-11.21,34-28-8Z"/><path class="cls-5" d="M577.07,477.46a10.09,10.09,0,0,0-.54-1,10.84,10.84,0,0,0-.55-1,9.21,9.21,0,0,0-.55-1,8.38,8.38,0,0,0-.55-1,11,11,0,0,0-.54-1,7.64,7.64,0,0,0-.54-1c-.17-.35-.35-.7-.55-1a7.58,7.58,0,0,0-.55-1,10,10,0,0,0-.55-1A11.42,11.42,0,0,0,570,465.2l26.16-79.3c.14-.43,0-.7.14-1.12a2.23,2.23,0,0,0,.2-1.32c.07-.21,0-.69.08-.9a10.75,10.75,0,0,0,0-1.39,1.55,1.55,0,0,1-.14-1,5.53,5.53,0,0,0-.52-1.29c-.15-.27-.22-.74-.36-1l-.59-1.09c0-.12-.08-.3-.24-.43l-.28-.55h-.05c0-.13-.07-.3-.23-.44l-.29-.54c0-.12-.09-.3-.24-.44l-.29-.54c0-.13-.08-.3-.24-.44l-.28-.55c0-.12-.08-.3-.24-.44l-.29-.54v0c0-.13-.08-.3-.24-.44l-.28-.54,0,0c0-.12-.07-.3-.23-.44l-.29-.54v0c0-.13-.08-.3-.24-.44l-.28-.54-.05,0c0-.13-.07-.3-.23-.44l-.3-.53c0-.13-.08-.31-.24-.44l-.32-.6c.07-.21-.28-.54-.5-.6a.28.28,0,0,0,0-.09.31.31,0,0,0,0-.08l0-.06-.08,0c-.36-.33-.52-.61-.87-.94a13,13,0,0,1-.79-1.15c-.21-.06-.58-.39-.79-.45-.37-.33-1-.52-1.15-.8a2,2,0,0,1-1-.51l-3.64-1a1.41,1.41,0,0,1-.93,0,5.65,5.65,0,0,0-1.44.06c-.42-.12-.7,0-1.07.39a2.55,2.55,0,0,0-1.42.05c-.27.15-.79.25-1.07.39a2.38,2.38,0,0,1-1.27.32,3.25,3.25,0,0,1-.93.67c-.28.14-.35.35-.56.29L460.3,437a12.22,12.22,0,0,0-5.26,7.2,11.27,11.27,0,0,0,1.22,8.58,6.15,6.15,0,0,0,.56,1,6,6,0,0,0,.55,1,6.89,6.89,0,0,0,.55,1,101.88,101.88,0,0,0,1.11,2.07,6.89,6.89,0,0,0,.55,1,7.37,7.37,0,0,0,.56,1,6,6,0,0,0,.55,1,6.15,6.15,0,0,0,.56,1,12.4,12.4,0,0,0,7.65,6.6l59.49,17-2.63,8a11.83,11.83,0,0,0-.58,5,11.52,11.52,0,0,0,1.57,4.73c.17.34.35.68.53,1a9.64,9.64,0,0,0,.54,1,10.6,10.6,0,0,0,.54,1,9.64,9.64,0,0,0,.54,1c.16.34.34.68.53,1a8.86,8.86,0,0,0,.54,1c.16.34.34.67.53,1a9.64,9.64,0,0,0,.54,1c.16.33.34.67.53,1a11.71,11.71,0,0,0,4.91,5.16,12.57,12.57,0,0,0,7.14,1.49,13.1,13.1,0,0,0,6.88-2.7,12.63,12.63,0,0,0,4.24-5.94l5.19-15.76,2.16.61a12.63,12.63,0,0,0,4.86.49,13.06,13.06,0,0,0,4.72-1.39,12.84,12.84,0,0,0,3.86-3,12.47,12.47,0,0,0,2.4-4.21,11.75,11.75,0,0,0,.61-4.91A11.46,11.46,0,0,0,577.07,477.46Zm-27.18-57.08-11.21,34-28-8Z"/><path class="cls-4" d="M572.53,476.74a12.28,12.28,0,0,1-2.4,4.21,12.72,12.72,0,0,1-3.86,3,13.24,13.24,0,0,1-4.73,1.38,12.6,12.6,0,0,1-4.85-.49l-2.15-.61-5.28,16a12.6,12.6,0,0,1-6.16,7.19,12.86,12.86,0,0,1-9.47,1,11.84,11.84,0,0,1-7.23-5.77,11.66,11.66,0,0,1-.77-9.17l5.28-16-67.67-19.28a10.58,10.58,0,0,1-6.41-4.59,11.18,11.18,0,0,1-1.94-4.25,11.45,11.45,0,0,1,0-4.7,11.94,11.94,0,0,1,1.87-4.39A12.42,12.42,0,0,1,460.2,437l111.39-74.19c.21.07.28-.14.57-.28a3.52,3.52,0,0,0,.92-.66,2.66,2.66,0,0,0,1.29-.33c.27-.15.77-.24,1.06-.39a2.49,2.49,0,0,1,1.43-.06,1,1,0,0,1,1.07-.37c.27-.16.7,0,1.42-.06a1.35,1.35,0,0,0,.93,0l3.66,1.05a1.92,1.92,0,0,0,1,.51c.14.27.79.46,1.15.79.21.06.58.4.79.46.29.53.65.87.79,1.14.37.33.51.6.87.94a.17.17,0,0,1,.13.1.2.2,0,0,1,0,.17c.21.06.58.4.51.61l.57,1.08c.15.28.22.75.37,1a5.58,5.58,0,0,1,.51,1.3,1.62,1.62,0,0,0,.16,1,8,8,0,0,1,0,1.38c-.07.21,0,.69-.06.9a2.27,2.27,0,0,1-.2,1.33c-.14.41,0,.69-.13,1.11l-28.25,85.62,2.15.61a12,12,0,0,1,7.34,5.77A11.77,11.77,0,0,1,572.53,476.74Zm-16.84-74.31L495.8,442.22l42.74,12.18Z"/><path class="cls-4" d="M725.66,437.49a59.62,59.62,0,0,0-5.11-12.37,4.17,4.17,0,0,0-.26-.46l-.07-.14a3.6,3.6,0,0,0-.2-.39c-.18-.37-.38-.72-.58-1.08l-.05-.09-.2-.37-.08-.13a3,3,0,0,0-.2-.4c-.18-.36-.38-.72-.57-1.07l-.06-.09-.2-.38-.07-.13c-.06-.13-.13-.27-.2-.39-.18-.37-.39-.72-.58-1.08l-.06-.09-.2-.37a.86.86,0,0,0-.07-.14,3,3,0,0,0-.21-.4c-.17-.37-.38-.71-.57-1.07l0-.09c-.06-.13-.13-.25-.2-.37a1.32,1.32,0,0,0-.08-.14c-5.75-11.16-15.09-20.13-27.7-23.72-17-4.84-34.17,1.08-47.63,12-13.88,10.73-24.57,26.83-31.17,46.11-6.11,19.24-7,38.26-2,54.41a62.89,62.89,0,0,0,5.06,12.24l.3.54,0,0,.52,1c.08.18.17.34.26.51l.29.53,0,.06.51,1,.26.51.3.53a.07.07,0,0,1,0,.06l.52,1,.26.51.3.53s0,0,0,0,0,0,0,0l.52,1,.27.51.29.52,0,.08.52,1c5.74,10.71,14.85,19.41,27.43,23,16.53,4.71,34-1.35,47.43-12,13.65-10.8,24.64-27,30.95-46.16C729.83,472.5,730.44,453.58,725.66,437.49ZM671.51,509c-9.2,7.26-17.61,9.24-24.26,7.35a19.9,19.9,0,0,1-10.06-7.07c-.18-.47-.34-.95-.49-1.46-3.1-10.55-3-25.23,2-40.16,5-15.14,13.66-27.16,22.64-34.46,9.37-7,18-9.13,24.63-7a18.14,18.14,0,0,1,9.63,6.52c.19.55.38,1.08.53,1.64,3,10.76,2.95,25.22-2,40.34C689.18,489.62,680.44,501.87,671.51,509Z"/><path class="cls-5" d="M725.66,437.49a59.62,59.62,0,0,0-5.11-12.37,4.17,4.17,0,0,0-.26-.46l-.07-.14a3.6,3.6,0,0,0-.2-.39c-.18-.37-.38-.72-.58-1.08l-.05-.09-.2-.37-.08-.13a3,3,0,0,0-.2-.4c-.18-.36-.38-.72-.57-1.07l-.06-.09-.2-.38-.07-.13c-.06-.13-.13-.27-.2-.39-.18-.37-.39-.72-.58-1.08l-.06-.09-.2-.37a.86.86,0,0,0-.07-.14,3,3,0,0,0-.21-.4c-.17-.37-.38-.71-.57-1.07l0-.09c-.06-.13-.13-.25-.2-.37a1.32,1.32,0,0,0-.08-.14c-5.75-11.16-15.09-20.13-27.7-23.72-17-4.84-34.17,1.08-47.63,12-13.88,10.73-24.57,26.83-31.17,46.11-6.11,19.24-7,38.26-2,54.41a62.89,62.89,0,0,0,5.06,12.24l.3.54,0,0,.52,1c.08.18.17.34.26.51l.29.53,0,.06.51,1,.26.51.3.53a.07.07,0,0,1,0,.06l.52,1,.26.51.3.53s0,0,0,0,0,0,0,0l.52,1,.27.51.29.52,0,.08.52,1c5.74,10.71,14.85,19.41,27.43,23,16.53,4.71,34-1.35,47.43-12,13.65-10.8,24.64-27,30.95-46.16C729.83,472.5,730.44,453.58,725.66,437.49ZM671.51,509c-9.2,7.26-17.61,9.24-24.26,7.35a19.9,19.9,0,0,1-10.06-7.07c-.18-.47-.34-.95-.49-1.46-3.1-10.55-3-25.23,2-40.16,5-15.14,13.66-27.16,22.64-34.46,9.37-7,18-9.13,24.63-7a18.14,18.14,0,0,1,9.63,6.52c.19.55.38,1.08.53,1.64,3,10.76,2.95,25.22-2,40.34C689.18,489.62,680.44,501.87,671.51,509Z"/><path class="cls-4" d="M609.2,450.54c6.59-19.28,17.29-35.33,31.16-46.09,13.44-10.86,30.66-16.8,47.63-12,16.52,4.71,27.42,18.63,32,34.65,4.8,16.06,4.19,35-2.19,54.35-6.33,19.17-17.29,35.33-30.95,46.15-13.39,10.68-30.88,16.74-47.4,12-17-4.84-27.59-18.91-32.23-34.72C602.24,488.81,603.1,469.74,609.2,450.54ZM694,474.7c5-15.14,5.08-29.61,2-40.33-3.31-10.61-9-16.83-15.73-18.51-6.59-2.11-15.27,0-24.62,7-9,7.33-17.66,19.35-22.64,34.46-4.92,14.92-5.07,29.61-2,40.15,3.45,10.87,9.41,16.94,16.09,18.85s15-.09,24.26-7.35C680.32,501.87,689.06,489.61,694,474.7Z"/><path class="cls-4" d="M848.89,557.06c-.17-.35-.35-.7-.54-1s-.36-.69-.56-1-.35-.7-.54-1-.36-.7-.55-1-.35-.7-.54-1a9.92,9.92,0,0,0-.56-1c-.17-.36-.35-.7-.54-1a9.79,9.79,0,0,0-.54-1c-.17-.36-.36-.69-.55-1a11.5,11.5,0,0,0-2.14-3.08L868,465.49c.14-.42,0-.69.14-1.11a2.24,2.24,0,0,0,.2-1.32c.07-.21,0-.69.07-.9a9.2,9.2,0,0,0,0-1.39,1.7,1.7,0,0,1-.14-1,5.53,5.53,0,0,0-.52-1.29c-.15-.28-.22-.75-.37-1l-.58-1.09c0-.12-.08-.31-.24-.44l-.28-.54h0c0-.14-.07-.31-.23-.45l-.3-.53c0-.13-.08-.31-.24-.45l-.28-.53c0-.13-.08-.31-.24-.45l-.28-.54c0-.12-.08-.3-.24-.44l-.3-.54,0-.05c0-.12-.08-.29-.24-.43l-.28-.55h-.05c0-.12-.07-.3-.23-.44l-.3-.54,0-.05c0-.12-.09-.29-.24-.43l-.28-.54,0,0c0-.13-.08-.3-.23-.44l-.3-.54c0-.12-.08-.3-.24-.43l-.32-.6c.07-.21-.28-.54-.51-.6a.14.14,0,0,0,0-.09.19.19,0,0,0,0-.08.18.18,0,0,0-.05-.07l-.08,0c-.36-.32-.51-.6-.86-.93s-.55-.76-.79-1.15c-.22-.06-.58-.39-.8-.45-.36-.33-1-.52-1.15-.8a2.11,2.11,0,0,1-1-.51l-3.64-1a1.48,1.48,0,0,1-.93,0c-.72,0-1.14-.09-1.44.06-.42-.12-.7,0-1.07.39a2.54,2.54,0,0,0-1.42.05c-.27.15-.79.24-1.06.39a2.52,2.52,0,0,1-1.29.32,3.17,3.17,0,0,1-.92.66c-.29.15-.35.35-.56.3l-111.7,73.79a12.17,12.17,0,0,0-5.25,7.2,11.23,11.23,0,0,0,1.22,8.58,6.89,6.89,0,0,0,.55,1,6.35,6.35,0,0,0,.55,1,8,8,0,0,0,.56,1c.56,1,1.11,2.07,1.66,3.11.37.68.74,1.37,1.1,2.07a8.58,8.58,0,0,0,.56,1,10.35,10.35,0,0,0,1.19,2,10.61,10.61,0,0,0,6.46,4.61l59.5,17-2.63,8a11.83,11.83,0,0,0-.58,5,11.33,11.33,0,0,0,1.57,4.73,10.78,10.78,0,0,0,.54,1c.15.33.34.66.53,1a9.64,9.64,0,0,0,.54,1c.17.34.34.67.54,1s.35.69.54,1,.33.67.53,1,.35.69.54,1,.34.67.53,1a10.94,10.94,0,0,0,.54,1,11.73,11.73,0,0,0,4.92,5.16,12.56,12.56,0,0,0,7.14,1.48,12.94,12.94,0,0,0,6.88-2.7,12.53,12.53,0,0,0,4.23-6l5.2-15.76,2.16.61a12.63,12.63,0,0,0,4.86.49,13.35,13.35,0,0,0,4.73-1.38,12.84,12.84,0,0,0,3.86-3,12.31,12.31,0,0,0,2.41-4.21,11.75,11.75,0,0,0,.6-4.91A11.46,11.46,0,0,0,848.89,557.06ZM821.7,500l-11.22,34-28-8Z"/><path class="cls-5" d="M848.89,557.06c-.17-.35-.35-.7-.54-1s-.36-.69-.56-1-.35-.7-.54-1-.36-.7-.55-1-.35-.7-.54-1a9.92,9.92,0,0,0-.56-1c-.17-.36-.35-.7-.54-1a9.79,9.79,0,0,0-.54-1c-.17-.36-.36-.69-.55-1a11.5,11.5,0,0,0-2.14-3.08L868,465.49c.14-.42,0-.69.14-1.11a2.24,2.24,0,0,0,.2-1.32c.07-.21,0-.69.07-.9a9.2,9.2,0,0,0,0-1.39,1.7,1.7,0,0,1-.14-1,5.53,5.53,0,0,0-.52-1.29c-.15-.28-.22-.75-.37-1l-.58-1.09c0-.12-.08-.31-.24-.44l-.28-.54h0c0-.14-.07-.31-.23-.45l-.3-.53c0-.13-.08-.31-.24-.45l-.28-.53c0-.13-.08-.31-.24-.45l-.28-.54c0-.12-.08-.3-.24-.44l-.3-.54,0-.05c0-.12-.08-.29-.24-.43l-.28-.55h-.05c0-.12-.07-.3-.23-.44l-.3-.54,0-.05c0-.12-.09-.29-.24-.43l-.28-.54,0,0c0-.13-.08-.3-.23-.44l-.3-.54c0-.12-.08-.3-.24-.43l-.32-.6c.07-.21-.28-.54-.51-.6a.14.14,0,0,0,0-.09.19.19,0,0,0,0-.08.18.18,0,0,0-.05-.07l-.08,0c-.36-.32-.51-.6-.86-.93s-.55-.76-.79-1.15c-.22-.06-.58-.39-.8-.45-.36-.33-1-.52-1.15-.8a2.11,2.11,0,0,1-1-.51l-3.64-1a1.48,1.48,0,0,1-.93,0c-.72,0-1.14-.09-1.44.06-.42-.12-.7,0-1.07.39a2.54,2.54,0,0,0-1.42.05c-.27.15-.79.24-1.06.39a2.52,2.52,0,0,1-1.29.32,3.17,3.17,0,0,1-.92.66c-.29.15-.35.35-.56.3l-111.7,73.79a12.17,12.17,0,0,0-5.25,7.2,11.23,11.23,0,0,0,1.22,8.58,6.89,6.89,0,0,0,.55,1,6.35,6.35,0,0,0,.55,1,8,8,0,0,0,.56,1c.56,1,1.11,2.07,1.66,3.11.37.68.74,1.37,1.1,2.07a8.58,8.58,0,0,0,.56,1,10.35,10.35,0,0,0,1.19,2,10.61,10.61,0,0,0,6.46,4.61l59.5,17-2.63,8a11.83,11.83,0,0,0-.58,5,11.33,11.33,0,0,0,1.57,4.73,10.78,10.78,0,0,0,.54,1c.15.33.34.66.53,1a9.64,9.64,0,0,0,.54,1c.17.34.34.67.54,1s.35.69.54,1,.33.67.53,1,.35.69.54,1,.34.67.53,1a10.94,10.94,0,0,0,.54,1,11.73,11.73,0,0,0,4.92,5.16,12.56,12.56,0,0,0,7.14,1.48,12.94,12.94,0,0,0,6.88-2.7,12.53,12.53,0,0,0,4.23-6l5.2-15.76,2.16.61a12.63,12.63,0,0,0,4.86.49,13.35,13.35,0,0,0,4.73-1.38,12.84,12.84,0,0,0,3.86-3,12.31,12.31,0,0,0,2.41-4.21,11.75,11.75,0,0,0,.6-4.91A11.46,11.46,0,0,0,848.89,557.06ZM821.7,500l-11.22,34-28-8Z"/><path class="cls-4" d="M844.34,556.34a12.28,12.28,0,0,1-2.4,4.21,12.84,12.84,0,0,1-3.86,3,13.29,13.29,0,0,1-4.73,1.38,12.63,12.63,0,0,1-4.86-.49l-2.14-.61-5.28,16a12.67,12.67,0,0,1-6.16,7.19,12.86,12.86,0,0,1-9.47,1,11.85,11.85,0,0,1-7.24-5.77,11.66,11.66,0,0,1-.76-9.17l5.28-16-67.67-19.28a10.57,10.57,0,0,1-6.46-4.6,11.18,11.18,0,0,1-2-9,11.82,11.82,0,0,1,1.87-4.4,12.52,12.52,0,0,1,3.5-3.38L843.4,442.37c.21.06.28-.14.56-.29a3,3,0,0,0,.93-.66,2.49,2.49,0,0,0,1.28-.32c.29-.15.79-.24,1.08-.39a2.46,2.46,0,0,1,1.42-.06,1,1,0,0,1,1.06-.38c.28-.15.71,0,1.43,0a1.35,1.35,0,0,0,.93,0l3.65,1a1.94,1.94,0,0,0,1,.52c.15.27.8.46,1.16.79.21.06.57.4.79.46.29.53.65.86.79,1.14.36.33.51.6.87.94a.17.17,0,0,1,.13.1.25.25,0,0,1,0,.17c.21.06.56.39.49.6l.59,1.09c.14.27.22.75.37,1a5.58,5.58,0,0,1,.51,1.3,1.56,1.56,0,0,0,.16,1,9.08,9.08,0,0,1,0,1.38c-.07.21,0,.69-.07.9a2.44,2.44,0,0,1-.2,1.33c-.14.41,0,.68-.13,1.11L834,540.73l2.15.61a12,12,0,0,1,7.34,5.77A11.77,11.77,0,0,1,844.34,556.34ZM827.49,482l-59.88,39.79L810.35,534Z"/><path class="cls-6" d="M849,443.69a32.14,32.14,0,0,1-11,13.16,33,33,0,0,1-16.29,5.81A31.79,31.79,0,0,1,805,459.4,29.86,29.86,0,0,1,792.78,448l-15.73-2.1,11.72-10.58a30.28,30.28,0,0,1,2.16-13.69A32,32,0,0,1,799,410.1a33.24,33.24,0,0,1,12.4-7.09,32.64,32.64,0,0,1,14.18-1.18,31.11,31.11,0,0,1,13.09,5,29.7,29.7,0,0,1,9.34,10.1,29.31,29.31,0,0,1,3.7,13.2,30.46,30.46,0,0,1-2.69,13.61Z"/><path class="cls-7" d="M849,443.69a32.16,32.16,0,0,1-11,13.18,30.34,30.34,0,0,1-7.77,4A33.14,33.14,0,0,1,813,462.36a28.82,28.82,0,0,1-4.2-1.1,26.74,26.74,0,0,1-4-1.61,30,30,0,0,1-12.48-11.39l.32.2-15.73-2-1.14-.14.87-.81,11.67-10.61-.16.5a30.68,30.68,0,0,1,3.76-17.1,32.7,32.7,0,0,1,12.59-12.73A33.4,33.4,0,0,1,822,401.21a31.71,31.71,0,0,1,16.84,5.4,30.4,30.4,0,0,1,9.27,10.24,29.43,29.43,0,0,1,3.64,13.23A30.37,30.37,0,0,1,849,443.69Zm0,0a29.87,29.87,0,0,0,2.66-13.54,29,29,0,0,0-13.1-23.1,30.91,30.91,0,0,0-13.07-4.81,32.1,32.1,0,0,0-14,1.29,33.87,33.87,0,0,0-12.16,7.07A31.59,31.59,0,0,0,791.44,422a30.44,30.44,0,0,0-2.12,13.41l0,.3-.21.2-11.75,10.54-.29-.93,15.71,2.21.2.06.11.17a29.3,29.3,0,0,0,12,11.34,25.77,25.77,0,0,0,3.9,1.65,30.24,30.24,0,0,0,12.69,1.72,30.7,30.7,0,0,0,8.51-1.8,34.51,34.51,0,0,0,4-1.69,36.91,36.91,0,0,0,3.73-2.25A32.39,32.39,0,0,0,849,443.69Z"/><path class="cls-4" d="M801.05,441.47a3.2,3.2,0,0,1,.55-1.09,3.12,3.12,0,0,1,.94-.79,3,3,0,0,1,1.16-.38,3,3,0,0,1,3.25,4,3.29,3.29,0,0,1-4,2.13,3,3,0,0,1-1.06-.56,2.87,2.87,0,0,1-1-2.08A3,3,0,0,1,801.05,441.47Zm3.47-6.55,6.88-23.35,4.67,1.34-8.27,22.92Z"/><path class="cls-4" d="M812.66,444.87a3,3,0,0,1,.55-1.09,3.08,3.08,0,0,1,.93-.79,3.22,3.22,0,0,1,1.17-.38,3.08,3.08,0,0,1,1.21.09,3,3,0,0,1,1.84,1.49,3.05,3.05,0,0,1,.2,2.37,3.3,3.3,0,0,1-4,2.13,3,3,0,0,1-1.06-.56,2.65,2.65,0,0,1-.73-.93,2.89,2.89,0,0,1-.11-2.33Zm3.47-6.55L823,415l4.66,1.34-8.24,23Z"/><path class="cls-4" d="M824.23,448.25a2.84,2.84,0,0,1,.55-1.08,3.09,3.09,0,0,1,3.3-1.08,3,3,0,0,1,2,3.86,3.27,3.27,0,0,1-4,2.12,3,3,0,0,1-1.06-.55,2.87,2.87,0,0,1-1-2.08A3,3,0,0,1,824.23,448.25Zm3.47-6.54,6.87-23.36,4.67,1.35-8.24,23Z"/><path class="cls-8" d="M602,575.83a8,8,0,0,1,.2-2.8,11.27,11.27,0,0,1,3.25-5.66,12.24,12.24,0,0,1,6-3.07,12.83,12.83,0,0,1,6.39.37,12.27,12.27,0,0,1,5.73,4,11.15,11.15,0,0,1,.23,13.73,10.94,10.94,0,0,1-2.49,2.5,11.63,11.63,0,0,1-3,1.63,12.79,12.79,0,0,1-6.38.57,12.25,12.25,0,0,1-6-2.89,11.3,11.3,0,0,1-3.46-5.55,8.41,8.41,0,0,1-.28-2.78,22.92,22.92,0,0,0,.53,2.72,11.42,11.42,0,0,0,4.43,6,11.88,11.88,0,0,0,5.31,2,12.06,12.06,0,0,0,5.68-.65,11.49,11.49,0,0,0,2.89-1.55A10.67,10.67,0,0,0,623.1,569a11.64,11.64,0,0,0-5.44-3.77,12.06,12.06,0,0,0-6.08-.4,11.55,11.55,0,0,0-4.85,2.11,11.24,11.24,0,0,0-4.22,6.16A23.06,23.06,0,0,0,602,575.83Z"/><path class="cls-8" d="M587.47,569.87a1.36,1.36,0,0,1-.39.12l-1.25.31L581,571.49l.07-.09c.06,2.69.14,6.24.24,10.54l-.13-.15,6.54,1.28h.12v.11a25.25,25.25,0,0,0,2.87,6.25l.06.11-.06.1-3.46,5.46v-.28l8,7.33h-.31l5.58-3.49.13-.1.14.09a28.25,28.25,0,0,0,6.64,2.49h.16v.17c.5,1.92,1,4,1.6,6.18l-.29-.21,11-.18-.3.23c.42-2,.9-4.08,1.36-6.25v-.17h.18a27.53,27.53,0,0,0,6.53-2.71l.16-.1.17.1,5.7,3.31h-.39l7.68-7.58v.38L637.33,589l-.1-.16.09-.16a25.06,25.06,0,0,0,2.62-6.31v-.18h.19l6.49-1.5-.25.3c-.07-3.58-.13-7.08-.18-10.55l.25.3-6.53-1.32h-.18l-.07-.17a24.68,24.68,0,0,0-2.82-6.24l-.1-.15.1-.16,3.47-5.45v.37l-7.92-7.34h.36l-5.59,3.49-.15.09-.15-.09a27.62,27.62,0,0,0-6.61-2.5h-.18v-.16l-1.57-6.19.27.2-11,.15.24-.19c-.49,2.2-1,4.25-1.39,6.24v.13h-.14a27.87,27.87,0,0,0-6.56,2.69l-.11.07-.12-.07-5.6-3.31h.24l-7.71,7.56v-.18l3.6,5.36a26.08,26.08,0,0,0-2.21,4.77c-.17.52-.3.93-.4,1.19a2.82,2.82,0,0,0-.13.41,1.66,1.66,0,0,1,.08-.42c.09-.27.18-.69.35-1.19a24.55,24.55,0,0,1,2.13-4.77v.11c-1-1.46-2.21-3.2-3.69-5.32l-.06-.09.08-.08,7.65-7.61.11-.11.12.08,5.72,3.29h-.21a27.18,27.18,0,0,1,6.65-2.77l-.18.16c.44-2,.89-4,1.36-6.23v-.19h.2l11-.19H619v.2l1.6,6.19-.21-.2a28.11,28.11,0,0,1,6.77,2.56h-.3l5.58-3.51.2-.12.18.16,7.95,7.33.17.17-.14.2L637.36,563v-.31a25.26,25.26,0,0,1,2.9,6.37l-.25-.21,6.54,1.31h.25v.25c.07,3.47.13,7,.19,10.54v.25l-.25.06-6.49,1.51.25-.22a26.07,26.07,0,0,1-2.67,6.47v-.32l3.64,5.34.15.2-.18.18L633.75,602l-.18.17-.21-.12-5.7-3.33H628a27.3,27.3,0,0,1-6.69,2.77l.23-.22c-.48,2.16-.95,4.29-1.37,6.24v.22h-.25l-11,.17h-.22v-.21l-1.57-6.2.19.2a28.92,28.92,0,0,1-6.76-2.57h.29l-5.61,3.46-.16.11-.15-.13-7.92-7.35-.13-.12.09-.16,3.48-5.43v.2a25.85,25.85,0,0,1-2.86-6.37l.14.13-6.53-1.32H581V582c0-4.3-.09-7.85-.12-10.55v-.08H581l4.81-1.08,1.25-.26Z"/><path class="cls-9" d="M264.48,540.8a28.47,28.47,0,0,1,2.95-7.16l-4.08-6,8.59-8.47,6.39,3.71a31.34,31.34,0,0,1,7.39-3.07l1.52-7,12.35-.19,1.78,6.92a31,31,0,0,1,7.48,2.83l6.24-3.9,8.88,8.2-3.85,6.09a28.27,28.27,0,0,1,3.21,7.06l7.3,1.45.2,11.81-7.25,1.69a28.06,28.06,0,0,1-3,7.15l4.08,6-8.58,8.48-6.39-3.71a31.07,31.07,0,0,1-7.39,3.06l-1.52,7-12.36.19L286.69,576a31.31,31.31,0,0,1-7.49-2.82L273,577.09l-8.87-8.2,3.88-6.1a28.63,28.63,0,0,1-3.21-7.06l-7.3-1.45-.2-11.8,7.25-1.7Zm16.22,6.68a12.26,12.26,0,0,0,2.35,7,13.15,13.15,0,0,0,6,4.57,13.83,13.83,0,0,0,7.67.6,13.41,13.41,0,0,0,6.73-3.57,12.47,12.47,0,0,0,3.51-6.54,12.15,12.15,0,0,0-.88-7.3,12.78,12.78,0,0,0-5-5.6,13.72,13.72,0,0,0-7.4-2,13.55,13.55,0,0,0-9.26,3.88,12.34,12.34,0,0,0-3.71,9Z"/><path class="cls-9" d="M549.09,510.27a7.73,7.73,0,0,1,.85-2.06l-1.18-1.73,2.5-2.45,1.83,1.08a9.16,9.16,0,0,1,2.14-.9l.43-2h3.57l.51,2a9.08,9.08,0,0,1,2.16.82l1.81-1.12,2.56,2.38L565.16,508a8.14,8.14,0,0,1,.92,2l2.11.41v3.41l-2.08.49a9.07,9.07,0,0,1-.86,2.06l1.18,1.73-2.49,2.39-1.85-1.08a8.66,8.66,0,0,1-2.13.89l-.44,2-3.57.06-.51-2a9.06,9.06,0,0,1-2.16-.81l-1.81,1.12-2.56-2.39,1.13-1.76a7.83,7.83,0,0,1-.93-2l-2.11-.42v-3.41l2.1-.48Zm4.69,1.93a3.53,3.53,0,0,0,.68,2,3.72,3.72,0,0,0,1.75,1.32,3.91,3.91,0,0,0,2.22.17,3.76,3.76,0,0,0,1.94-1,3.53,3.53,0,0,0,.75-4,3.72,3.72,0,0,0-1.45-1.62,3.94,3.94,0,0,0-2.15-.57,4.06,4.06,0,0,0-1.46.31,4,4,0,0,0-1.23.83,3.6,3.6,0,0,0-.8,1.21,3.44,3.44,0,0,0-.25,1.42Z"/><path class="cls-10" d="M182.32,545.58a11.87,11.87,0,0,1,1.25-2.85l-1.63-2.39,3.4-3.39,2.5,1.47a12.33,12.33,0,0,1,2.94-1.19l.61-2.79,5-.08.71,2.76a13.28,13.28,0,0,1,3,1.2l2.5-1.55,3.54,3.28-1.55,2.38a10.94,10.94,0,0,1,1.25,2.82l2.92.59.09,4.71-2.91.68a11.64,11.64,0,0,1-1.17,2.86l1.62,2.38-3.43,3.39-2.5-1.48a11.92,11.92,0,0,1-3,1.19l-.61,2.79-5,.08-.71-2.76a12.54,12.54,0,0,1-3-1.13l-2.5,1.56-3.52-3.35,1.55-2.39a10.94,10.94,0,0,1-1.25-2.82l-2.92-.59-.09-4.7,2.9-.68Zm6.52,2.67a4.89,4.89,0,0,0,.93,2.79,5.3,5.3,0,0,0,2.4,1.82,5.61,5.61,0,0,0,3.06.25,5.37,5.37,0,0,0,2.69-1.42,5,5,0,0,0,1.41-2.6,4.85,4.85,0,0,0-.34-2.91,5.1,5.1,0,0,0-2-2.25,5.5,5.5,0,0,0-2.94-.82,5.41,5.41,0,0,0-2,.41,5.18,5.18,0,0,0-1.71,1.12,5,5,0,0,0-1.13,1.66A4.83,4.83,0,0,0,188.84,548.25Z"/><path class="cls-11" d="M200.24,649.54a23.26,23.26,0,0,1,2.5-6l-3.38-5,7.11-7,5.28,3.07a25.34,25.34,0,0,1,6.11-2.53l1.25-5.79,10.22-.15,1.48,5.73a26.05,26.05,0,0,1,6.24,2.39l5.16-3.23,7.35,6.79-3.2,5a24,24,0,0,1,2.64,5.84l6.05,1.2.18,9.76-6,1.41a23.74,23.74,0,0,1-2.49,6L250.1,672l-7.11,7L237.76,676a25.82,25.82,0,0,1-6.12,2.53l-1.37,5.81-10.23.17-1.46-5.74a25.46,25.46,0,0,1-6.24-2.38l-5.18,3.23-7.35-6.8,3.22-5a22.47,22.47,0,0,1-2.66-5.84l-6.05-1.19-.17-9.78,6-1.39Zm13.48,5.53a10.19,10.19,0,0,0,1.94,5.8,10.91,10.91,0,0,0,5,3.79,11.46,11.46,0,0,0,6.35.51,11.15,11.15,0,0,0,5.58-3,10.37,10.37,0,0,0,2.92-5.42,10.08,10.08,0,0,0-.73-6,10.66,10.66,0,0,0-4.13-4.65,11.45,11.45,0,0,0-6.13-1.67,11.74,11.74,0,0,0-4.19.86,11,11,0,0,0-3.52,2.33,10.5,10.5,0,0,0-2.32,3.44A10.09,10.09,0,0,0,213.72,655.07Z"/><path class="cls-11" d="M414.83,447.42a10.78,10.78,0,0,1,1.06-2.59l-1.47-2.14,3.11-3.06,2.29,1.33a11.48,11.48,0,0,1,2.66-1.1l.56-2.51,4.44-.07.64,2.49a11.2,11.2,0,0,1,2.71,1l2.25-1.4,3.2,2.95-1.35,2.21a9.54,9.54,0,0,1,1.15,2.54l2.64.52.07,4.26-2.61.61a9.85,9.85,0,0,1-1.07,2.58l1.47,2.15-3.09,3.06-2.3-1.33a11.35,11.35,0,0,1-2.67,1.09l-.55,2.52-4.45.07-.64-2.49a10.91,10.91,0,0,1-2.7-1l-2.25,1.41-3.2-3,1.4-2.2a10.41,10.41,0,0,1-1.16-2.54l-2.64-.52-.07-4.26,2.62-.61Zm5.87,2.39a4.43,4.43,0,0,0,.84,2.52,4.78,4.78,0,0,0,2.18,1.65,5,5,0,0,0,2.76.22,4.88,4.88,0,0,0,2.43-1.29,4.56,4.56,0,0,0,1.27-2.36,4.34,4.34,0,0,0-.32-2.63,4.6,4.6,0,0,0-1.79-2,4.9,4.9,0,0,0-2.67-.73,5,5,0,0,0-1.83.38,4.83,4.83,0,0,0-1.53,1,4.46,4.46,0,0,0-1,1.5,4.27,4.27,0,0,0-.33,1.76Z"/><path class="cls-12" d="M645.84,745c5.62-2.77,12.22-3.12,18.45-2.15,3.35.54,6.84,1.49,9.12,3.89s2.71,6.63.09,8.69a9,9,0,0,1-5.74,1.4c-4.88,0-10.3-.88-14.19,1.93-2.22,1.59-3.75,4.25-6.37,5a6.51,6.51,0,0,1-4-.35,6.18,6.18,0,0,1-2.94-2.58,9.86,9.86,0,0,1-.78-7.57,11.33,11.33,0,0,1,2.15-4.86A12,12,0,0,1,645.84,745Z"/><path class="cls-12" d="M632.94,721.26c3.43,4.69,10.09,3.14,13.19.28s4.39-7,5.59-10.95c2.72-9,5.45-18.5,3.43-27.69a15.07,15.07,0,0,0-3.74-7.52,8.53,8.53,0,0,0-3.63-2.29,8.9,8.9,0,0,0-4.35-.24c-3.35.85-5.45,4-7,7a63.58,63.58,0,0,0-6.78,28.31C629.69,712.72,630.24,717.5,632.94,721.26Z"/><path class="cls-12" d="M623.52,728c3.74-4.23,4.43-10.39,2.77-15.68s-5.41-9.79-9.73-13.46a52.54,52.54,0,0,0-17.47-9.81,19.29,19.29,0,0,0-7.82-1.28,8.44,8.44,0,0,0-3.78,1.12,8,8,0,0,0-2.79,2.68c-1.83,3.34-.08,7.38,1.83,10.73A125.79,125.79,0,0,0,598,718.88c3.42,4.22,7.35,8.34,12.57,10.29s10.65,1.69,13.41-1.78"/><path class="cls-8" d="M632.7,791.93a9.7,9.7,0,0,0,.31-2.14c.16-1.54.35-3.49.59-5.8a78.93,78.93,0,0,1,1.37-8.51,62.76,62.76,0,0,1,3.25-10.06,36.44,36.44,0,0,1,5.36-9.09,19.83,19.83,0,0,1,6.79-5.4,20.36,20.36,0,0,1,5.73-1.7,11.86,11.86,0,0,0,2.22-.3,10.67,10.67,0,0,0-2.26,0,18,18,0,0,0-6,1.48,19.9,19.9,0,0,0-7.17,5.45,35.34,35.34,0,0,0-5.57,9.27,59.42,59.42,0,0,0-3.22,10.22A69.51,69.51,0,0,0,633,784c-.19,2.46-.26,4.47-.3,5.84A10,10,0,0,0,632.7,791.93Z"/><path class="cls-8" d="M633.12,787.46a4.1,4.1,0,0,0,0-1v-2.82c0-2.45,0-6,.13-10.38.24-8.75,1-18.17,2.49-31.45,1.45-12.5,3.39-27,5.43-36.49.44-2.15.88-4.08,1.25-5.77s.74-3.17,1.07-4.35.5-2,.69-2.75a3.2,3.2,0,0,0,.18-1,4.34,4.34,0,0,0-.35.93l-.86,2.7c-.39,1.19-.78,2.62-1.25,4.32s-.95,3.57-1.43,5.75a308.7,308.7,0,0,0-5.7,33.86,333.34,333.34,0,0,0-2.28,34.21c0,4.39,0,7.94.16,10.4.07,1.19.14,2.07.19,2.82A3.67,3.67,0,0,0,633.12,787.46Z"/><path class="cls-8" d="M633.19,764.08a18.16,18.16,0,0,0,0-3,80,80,0,0,0-1-8,98.87,98.87,0,0,0-2.75-11.61,91.18,91.18,0,0,0-5.09-13.78,73.49,73.49,0,0,0-15-22.26,38.65,38.65,0,0,0-3.52-3.12c-.55-.44-1-.87-1.51-1.19l-1.36-.91a20.36,20.36,0,0,0-2.61-1.58c-.14.19,3.68,2.38,8.52,7.26a76.82,76.82,0,0,1,14.59,22.17,105.82,105.82,0,0,1,5.13,13.65,115.86,115.86,0,0,1,2.89,11.52c.68,3.32,1,6,1.25,7.92A16.23,16.23,0,0,0,633.19,764.08Z"/><path class="cls-8" d="M609.53,805.32,612,837.41h43.16l2.46-32.09Z"/><path class="cls-8" d="M662.74,792.67H605.36v12.65h57.38Z"/><path class="cls-12" d="M605.36,836.18v3.52h56.43v-3.52Z"/><path class="cls-8" d="M610.7,845.86l-2.65-6.16h51.69l-3.08,6.16Z"/><path class="cls-13" d="M656.79,815.81s0,.1-.2.29l-.64.81-2.5,3.08-.11.14-.1-.14-6.15-8.13h.35l-6.08,8.23-.2.26-.21-.25-7.26-8.24h.42l-.4.48-6.45,7.72-.21.26-.2-.27-6.09-8.19h.36c-3,3.25-5.54,6-7.49,8.15l-.12.15-.12-.17-2.34-3.77-.6-1a1.55,1.55,0,0,1-.19-.36,1.64,1.64,0,0,1,.26.33l.67,1,2.49,3.7h-.29c1.91-2.16,4.42-5,7.37-8.26l.18-.21.18.22,6.14,8.19h-.41l6.42-7.74.4-.48.2-.23.22.23,7.2,8.22h-.44l6.15-8.18.18-.24.17.24,6,8.25h-.22c1.1-1.26,2-2.27,2.62-3l.7-.78Z"/><path class="cls-13" d="M658.2,805.1c0,.14-10.82.26-24.16.26s-24.15-.12-24.15-.26,10.8-.25,24.15-.25S658.2,805,658.2,805.1Z"/><path class="cls-13" d="M660.38,840c0,.14-11.76.26-26.21.26S608,840.17,608,840s11.75-.25,26.2-.25S660.38,839.9,660.38,840Z"/><path class="cls-12" d="M205.83,480.67a14,14,0,0,1,2.24,0c.72,0,1.61,0,2.62.07s2.19.11,3.47.26a84.77,84.77,0,0,1,9,1.35,92.42,92.42,0,0,1,10.65,2.88,94.33,94.33,0,0,1,10.14,4.31,78.36,78.36,0,0,1,7.75,4.48c1.08.67,2,1.36,2.83,1.93s1.51,1.11,2.06,1.56a16.25,16.25,0,0,1,1.67,1.42,13,13,0,0,1-1.83-1.19c-.58-.42-1.25-.92-2.13-1.47s-1.77-1.19-2.85-1.86c-2.14-1.34-4.78-2.82-7.78-4.32a98,98,0,0,0-10.08-4.24,103.32,103.32,0,0,0-10.56-3q-4.39-.94-8.87-1.47c-1.25-.18-2.42-.24-3.45-.35s-1.88-.14-2.6-.18A15.15,15.15,0,0,1,205.83,480.67Z"/><path class="cls-12" d="M182.71,613.48a3.92,3.92,0,0,1,.67-.55l2-1.44c.86-.64,2-1.4,3.24-2.21s2.74-1.79,4.42-2.73,3.48-2,5.52-3.06,4.2-2.1,6.52-3.19a141.08,141.08,0,0,1,15.63-5.86,144,144,0,0,1,16.31-3.8c2.5-.38,5-.79,7.26-1s4.41-.43,6.36-.54,3.74-.15,5.26-.19,2.88,0,4,0l2.5.08a5.1,5.1,0,0,1,.87.07,4.22,4.22,0,0,1-.87,0h-2.5c-1.09,0-2.42,0-4,.1s-3.29.1-5.23.29-4.07.29-6.32.6-4.68.65-7.22,1a149.32,149.32,0,0,0-16.22,3.84,147.2,147.2,0,0,0-15.6,5.92c-2.31,1.08-4.52,2.07-6.52,3.13s-3.86,2-5.54,3-3.14,1.87-4.45,2.66-2.41,1.5-3.3,2.09l-2.07,1.36A6.3,6.3,0,0,1,182.71,613.48Z"/><path class="cls-12" d="M272.4,677.55a2.3,2.3,0,0,1,.09-.64l.37-1.84c.16-.79.39-1.75.69-2.86s.6-2.38,1-3.78c.81-2.79,1.93-6,3.34-9.64a119.65,119.65,0,0,1,5.21-11.4,123.31,123.31,0,0,1,6.43-10.82c2.13-3.25,4.24-6,6.1-8.35.9-1.19,1.79-2.15,2.5-3.05s1.42-1.63,2-2.24l1.25-1.38a3.06,3.06,0,0,1,.5-.46,2.36,2.36,0,0,1-.4.54c-.31.39-.72.87-1.25,1.46s-1.18,1.39-1.9,2.31-1.59,1.92-2.5,3.1c-1.8,2.3-3.82,5.13-6,8.34s-4.28,6.87-6.36,10.8-3.74,7.77-5.25,11.31a101.34,101.34,0,0,0-3.44,9.54c-.47,1.38-.8,2.65-1.13,3.74s-.58,2-.78,2.84-.37,1.32-.5,1.8A3.07,3.07,0,0,1,272.4,677.55Z"/><path class="cls-12" d="M442,350.35a4.82,4.82,0,0,1-.49.72l-1.53,2c-.66.86-1.46,1.92-2.34,3.18s-1.93,2.67-3,4.3-2.17,3.37-3.42,5.31-2.41,4-3.68,6.25a156,156,0,0,0-12.93,30.36c-.7,2.38-1.41,4.77-1.93,6.93s-1,4.22-1.44,6.09-.71,3.57-1,5.05-.5,2.79-.65,3.85-.3,1.81-.4,2.39a4,4,0,0,1-.18.83,4.12,4.12,0,0,1,0-.86c.07-.62.16-1.43.28-2.38s.28-2.39.55-3.86.49-3.22.9-5.09.8-3.95,1.36-6.13,1.25-4.52,1.89-7a161.29,161.29,0,0,1,5.61-15.58,148.7,148.7,0,0,1,7.37-14.89c1.24-2.22,2.49-4.33,3.74-6.25s2.4-3.69,3.49-5.29,2.16-3,3.07-4.24a38.7,38.7,0,0,1,2.5-3.14c.76-.83,1.19-1.45,1.6-1.94A3.19,3.19,0,0,1,442,350.35Z"/><path class="cls-12" d="M554.3,474.2a4.52,4.52,0,0,1-.75.13l-2.15.27-1.56.18c-.58.08-1.19.21-1.84.32-1.32.26-2.83.47-4.45.92l-2.5.63c-.9.23-1.8.55-2.73.84-1.91.54-3.86,1.35-5.92,2.15a72.32,72.32,0,0,0-23.57,15.82c-1.49,1.59-2.95,3.07-4.12,4.59-.6.75-1.25,1.44-1.76,2.16l-1.55,2.1c-1,1.3-1.71,2.6-2.41,3.68-.33.56-.67,1.06-.94,1.55l-.7,1.34-1,1.84a3.27,3.27,0,0,1-.4.64,3.71,3.71,0,0,1,.27-.68c.24-.51.53-1.2.9-1.91l.65-1.37c.26-.49.59-1,.91-1.58a40.6,40.6,0,0,1,2.34-3.76l1.47-2.12c.51-.74,1.13-1.45,1.73-2.21,1.18-1.55,2.62-3.05,4.11-4.66a70.23,70.23,0,0,1,23.77-15.95c2.09-.79,4.06-1.59,6-2.12,1-.28,1.87-.6,2.77-.81l2.58-.6a45.82,45.82,0,0,1,4.51-.82c.66-.11,1.25-.22,1.86-.28l1.57-.13,2.17-.15A2.76,2.76,0,0,1,554.3,474.2Z"/><path class="cls-12" d="M646.07,545.13l-.33-.09-.93-.3-3.59-1.19-2.58-.91c-.95-.31-2-.6-3.12-.95-2.23-.67-4.75-1.51-7.62-2.21l-4.47-1.19c-1.56-.4-3.21-.71-4.89-1.09-3.37-.8-7-1.39-10.87-2.05A196.86,196.86,0,0,0,557,533.67c-3.87.44-7.57.81-11,1.4-1.71.29-3.37.5-5,.81l-4.53.9c-2.91.52-5.48,1.19-7.76,1.76-1.14.28-2.2.52-3.16.77l-2.64.75-3.65,1-1,.25a1,1,0,0,1-.34,0l.32-.12.93-.31,3.62-1.19,2.64-.8c1-.27,2-.53,3.15-.83,2.27-.56,4.84-1.29,7.75-1.85l4.54-.94c1.58-.32,3.25-.55,5-.84,3.43-.63,7.12-1,11-1.47a191.64,191.64,0,0,1,50.8,1.49c3.84.69,7.48,1.28,10.88,2.11,1.7.39,3.34.71,4.9,1.19L628,539c2.87.73,5.38,1.61,7.61,2.3,1.13.36,2.16.68,3.11,1l2.57,1,3.55,1.33.91.37C646,545.08,646.08,545.12,646.07,545.13Z"/><path class="cls-14" d="M330,344.7l1.17-1.11a18,18,0,0,1,24.62.09l3.32,3.19a16.12,16.12,0,0,1-.09,23.52l-1.17,1.1Z"/><path class="cls-7" d="M357.84,371.51,330,344.69l1.16-1.11a17.34,17.34,0,0,1,5.64-3.59,18,18,0,0,1,6.65-1.25h.06a18.15,18.15,0,0,1,6.68,1.28,17.45,17.45,0,0,1,5.64,3.63l3.32,3.2a16.14,16.14,0,0,1-.09,23.56ZM330,344.68l27.81,26.75,1.14-1.09a16.08,16.08,0,0,0,.09-23.47l-3.32-3.19a17.09,17.09,0,0,0-5.62-3.63,17.91,17.91,0,0,0-6.65-1.27h-.06A17.79,17.79,0,0,0,336.8,340a17.22,17.22,0,0,0-5.62,3.54Z"/><path class="cls-14" d="M273.75,450.21l-1.21,1.07a18,18,0,0,1-24.6-.95l-3.19-3.3a16.16,16.16,0,0,1,1-23.58l1.17-1Z"/><path class="cls-7" d="M260.76,455.73H260a18.12,18.12,0,0,1-6.62-1.51,17.5,17.5,0,0,1-5.5-3.83l-3.18-3.3a16.17,16.17,0,0,1,1-23.55l1.25-1.08,26.81,27.76-1.24,1.07A17.73,17.73,0,0,1,260.76,455.73Zm-15-32.19a16.84,16.84,0,0,0-4,5.25,16.08,16.08,0,0,0-1.6,6.32,15.71,15.71,0,0,0,1.06,6.43,16.43,16.43,0,0,0,3.56,5.55l3.19,3.3a17.32,17.32,0,0,0,5.49,3.82,18,18,0,0,0,6.59,1.51h.72a17.71,17.71,0,0,0,11.76-4.4l1.25-1.05L247,422.57Z"/><path class="cls-14" d="M230.48,389.16l-1.95,2.32L248.62,407l2-2.32Z"/><path class="cls-7" d="M231.79,384.27a6,6,0,0,1,2.08,2.91,5.75,5.75,0,0,1,0,3.53,6,6,0,0,1-2,3,6.4,6.4,0,0,1-3.4,1.38,6.66,6.66,0,0,1-3.63-.65,6.2,6.2,0,0,1-2.64-2.48,5.88,5.88,0,0,1-.75-3.45,5.94,5.94,0,0,1,1.38-3.28,6.58,6.58,0,0,1,8.95-.91Z"/><path class="cls-4" d="M307.87,348.72l-58.6,55.59a19,19,0,0,0-.1,27.81L286,467.51a21.28,21.28,0,0,0,29.12.1L373.68,412a19.05,19.05,0,0,0,.1-27.82L337,348.81A21.28,21.28,0,0,0,307.87,348.72Z"/><path class="cls-14" d="M309.51,347.17l-2.75-10.05-7.18,1.13L297.51,331l2.35-.51,1.63,5.28,7.16-.93,3,10.31Z"/><path class="cls-7" d="M313.73,361.93,263.07,410a16.11,16.11,0,0,0-.09,23.53l2.33,2.24a18,18,0,0,0,24.64.09l50.66-48.06a16.12,16.12,0,0,0,.09-23.53L338.36,362A18,18,0,0,0,313.73,361.93Z"/><path class="cls-7" d="M343.41,392.25s.15-.19.46-.53a18.57,18.57,0,0,0,1.37-1.59,19.75,19.75,0,0,0,3.66-7,22.13,22.13,0,0,0,.84-5.6,21.12,21.12,0,0,0-1.13-6.63,20.21,20.21,0,0,0-3.89-6.73l-1.47-1.55-1.6-1.53a31.73,31.73,0,0,0-3.44-3,22.39,22.39,0,0,0-9-4,23.29,23.29,0,0,0-10.69.59,22.59,22.59,0,0,0-5.14,2.29,26.56,26.56,0,0,0-4.52,3.58l-8.79,8.34-39.23,37.23a20.06,20.06,0,0,0-6,18.72,20.75,20.75,0,0,0,4.29,8.83c.74.82,1.46,1.62,2.28,2.38a37.48,37.48,0,0,0,4.92,4.32,22.5,22.5,0,0,0,23.71,1,24,24,0,0,0,2.5-1.59c.75-.61,1.48-1.19,2.17-1.87l4.1-3.88,15-14.12,21.68-20.42,5.89-5.45,1.55-1.43c.34-.31.54-.46.54-.46l-.49.51-1.51,1.48-5.83,5.6-21.54,20.56-14.89,14.19-4.08,3.88c-.7.66-1.46,1.29-2.21,1.91a24.53,24.53,0,0,1-2.5,1.65A23.16,23.16,0,0,1,266,441a39.24,39.24,0,0,1-5-4.37c-.81-.75-1.57-1.6-2.33-2.39a23.14,23.14,0,0,1-1.95-2.78,20.71,20.71,0,0,1-2.5-6.31,21.13,21.13,0,0,1-.23-6.87,20.92,20.92,0,0,1,6.37-12.4l39.27-37.2,8.82-8.35a27.45,27.45,0,0,1,4.62-3.66,23,23,0,0,1,25.4,1.11,32.89,32.89,0,0,1,3.49,3.07l1.58,1.53,1.51,1.52A20.61,20.61,0,0,1,349,370.8a20.84,20.84,0,0,1,1.08,6.73,22.35,22.35,0,0,1-.89,5.68,19.7,19.7,0,0,1-3.74,7,14,14,0,0,1-1.44,1.54Z"/><path class="cls-6" d="M278.64,429.72a89.52,89.52,0,0,1-.49-10.73,87.31,87.31,0,0,1,.18-10.73A91.62,91.62,0,0,1,278.8,419,89.33,89.33,0,0,1,278.64,429.72Z"/><path class="cls-6" d="M289.51,418.14a95.73,95.73,0,0,1-11.23.8,105.21,105.21,0,0,1-11.23.18,97.94,97.94,0,0,1,11.23-.8A105.21,105.21,0,0,1,289.51,418.14Z"/><path class="cls-6" d="M323.12,386.42a89.25,89.25,0,0,1-.49-10.72,83.52,83.52,0,0,1,.18-10.73,93.65,93.65,0,0,1,.47,10.73A91.31,91.31,0,0,1,323.12,386.42Z"/><path class="cls-6" d="M334,374.85a108.29,108.29,0,0,1-11.23.8,100.34,100.34,0,0,1-11.24.16,103,103,0,0,1,11.24-.78A100.13,100.13,0,0,1,334,374.85Z"/><path class="cls-7" d="M297.31,332.73a6.08,6.08,0,1,0-6.46-6A6.21,6.21,0,0,0,297.31,332.73Z"/><path class="cls-7" d="M317,465.78a6.5,6.5,0,0,1-1.09-.87c-.69-.58-1.65-1.45-2.84-2.53-2.35-2.14-5.6-5.16-9.13-8.51s-6.72-6.41-9-8.67a26.71,26.71,0,0,1-3.5-3.79c.36.29.71.6,1,.92l2.79,2.56c2.49,2.28,5.61,5.26,9.11,8.54s6.72,6.41,9,8.64l2.68,2.67A5.67,5.67,0,0,1,317,465.78Z"/><path class="cls-7" d="M371.06,413.77a5.79,5.79,0,0,1-1.09-.87c-.68-.58-1.64-1.44-2.82-2.52-2.38-2.15-5.61-5.16-9.15-8.51s-6.72-6.42-9-8.68a27.11,27.11,0,0,1-3.5-3.77,10,10,0,0,1,1.05.9l2.78,2.56,9.11,8.55c3.54,3.35,6.73,6.4,9,8.63l2.68,2.67A5.27,5.27,0,0,1,371.06,413.77Z"/><path class="cls-7" d="M345.24,396.85l-45.65,44.31,5.09,4.78,45.64-44.31Z"/><path class="cls-7" d="M293.42,449.26a1.32,1.32,0,0,1-.26.73,1.44,1.44,0,0,1-.65.46,1.49,1.49,0,0,1-.81,0,1.41,1.41,0,0,1-.68-.41,1.25,1.25,0,0,1-.34-.7,1.29,1.29,0,0,1,.7-1.31,1.44,1.44,0,0,1,1.7.27A1.3,1.3,0,0,1,293.42,449.26Z"/><path class="cls-7" d="M303.82,459.76a1.3,1.3,0,0,1-.47.84,1.4,1.4,0,0,1-.94.3,1.41,1.41,0,0,1-.92-.38,1.31,1.31,0,0,1-.4-.87,1.25,1.25,0,0,1,.48-.83,1.42,1.42,0,0,1,.94-.31,1.39,1.39,0,0,1,.91.38A1.27,1.27,0,0,1,303.82,459.76Z"/><path class="cls-7" d="M354.59,389.76a1.29,1.29,0,0,1-.46.87,1.4,1.4,0,0,1-1,.32,1.52,1.52,0,0,1-.56-.08,1.35,1.35,0,0,1-.47-.3,1.25,1.25,0,0,1-.31-.45,1.21,1.21,0,0,1-.09-.53,1.18,1.18,0,0,1,.13-.52,1.47,1.47,0,0,1,.35-.43,1.38,1.38,0,0,1,.5-.25,1.32,1.32,0,0,1,.56-.05,1.63,1.63,0,0,1,.54.12,1.28,1.28,0,0,1,.44.32,1.19,1.19,0,0,1,.27.46A1.15,1.15,0,0,1,354.59,389.76Z"/><path class="cls-7" d="M365.05,400.26a1.28,1.28,0,0,1-.13.5,1.35,1.35,0,0,1-.31.41,1.43,1.43,0,0,1-.45.26,1.59,1.59,0,0,1-.53.08,1.46,1.46,0,0,1-.51-.12,1.36,1.36,0,0,1-.71-.73,1.24,1.24,0,0,1-.08-.51,1.41,1.41,0,0,1,.12-.49,1.57,1.57,0,0,1,.32-.41,1.43,1.43,0,0,1,.45-.26,1.37,1.37,0,0,1,.53-.08,1.52,1.52,0,0,1,.51.12,1.28,1.28,0,0,1,.43.3,1.23,1.23,0,0,1,.36.93Z"/><path class="cls-6" d="M253.29,450.66a33.72,33.72,0,0,0-2.88-2.44c-.94-.7-2.12-1.47-3.33-2.49a12.44,12.44,0,0,1-3.17-4,13,13,0,0,1-1-8.92,10.48,10.48,0,0,1,1-2.56,4,4,0,0,1,.58-.84,27.07,27.07,0,0,0-1.16,3.5,13.16,13.16,0,0,0,1.13,8.54c1.49,3.17,4.4,4.91,6.24,6.4A8.5,8.5,0,0,1,253.29,450.66Z"/><path class="cls-6" d="M307.54,354.74c.13.12-13,12.49-29.29,27.62s-29.64,27.31-29.76,27.19,13-12.53,29.3-27.63S307.42,354.62,307.54,354.74Z"/><path class="cls-6" d="M226.42,393.29c0,.07-.64,0-1.48-.54a4.89,4.89,0,0,1-2.17-3,4.71,4.71,0,0,1,.67-3.63c.55-.82,1.1-1.13,1.15-1.07s-.35.48-.74,1.27a5.14,5.14,0,0,0-.45,3.29,5.25,5.25,0,0,0,1.88,2.84C225.91,393,226.52,393.19,226.42,393.29Z"/><path class="cls-6" d="M295.74,331.09c0,.07-.71,0-1.6-.61a5.26,5.26,0,0,1-1.42-1.48,4.84,4.84,0,0,1-.53-3.9,5,5,0,0,1,1-1.77c.7-.8,1.34-1.05,1.38-1s-.46.45-1,1.19a4.85,4.85,0,0,0-.89,3.47,5,5,0,0,0,1.78,3.15C295.16,330.77,295.77,331,295.74,331.09Z"/><path class="cls-6" d="M343,340.65a28.87,28.87,0,0,0-5.12,1.12,28.28,28.28,0,0,0-4.53,2.54,8.17,8.17,0,0,1,4.26-3.13A8.75,8.75,0,0,1,343,340.65Z"/><path class="cls-6" d="M291.18,467.9a126.63,126.63,0,0,1-9.32-8.76c-5-5-9-9.07-8.84-9.19s4.3,3.8,9.31,8.76S291.31,467.78,291.18,467.9Z"/><path class="cls-4" d="M435.22,754.19h-53.4v72.3h53.4Z"/><path class="cls-7" d="M382.23,825.25h52.59a7.25,7.25,0,0,1,5,2,6.61,6.61,0,0,1,2.09,4.8v.65H375.11V832a6.48,6.48,0,0,1,.54-2.6,6.66,6.66,0,0,1,1.55-2.21,7.06,7.06,0,0,1,2.31-1.47A7.42,7.42,0,0,1,382.23,825.25Z"/><path class="cls-4" d="M450.12,832.69H369v11.77h81.1Z"/><path class="cls-7" d="M434.94,818.55c0,.16-11.84.31-26.44.31s-26.44-.15-26.44-.31,11.83-.31,26.44-.31S434.94,818.37,434.94,818.55Z"/><path class="cls-7" d="M434.94,809.94c0,.18-11.84.31-26.44.31s-26.44-.13-26.44-.31,11.83-.31,26.44-.31S434.94,809.78,434.94,809.94Z"/><path class="cls-7" d="M434.94,801.5c0,.17-11.84.31-26.44.31s-26.44-.14-26.44-.31,11.83-.31,26.44-.31S434.94,801.33,434.94,801.5Z"/><path class="cls-7" d="M434.94,792.91c0,.16-11.84.31-26.44.31s-26.44-.15-26.44-.31,11.83-.31,26.44-.31S434.94,792.79,434.94,792.91Z"/><path class="cls-7" d="M434.94,784.44c0,.18-11.84.31-26.44.31s-26.44-.13-26.44-.31,11.83-.31,26.44-.31S434.94,784.29,434.94,784.44Z"/><path class="cls-7" d="M434.94,775.86c0,.18-11.84.31-26.44.31s-26.44-.13-26.44-.31,11.83-.31,26.44-.31S434.94,775.69,434.94,775.86Z"/><path class="cls-7" d="M434.94,767.42c0,.17-11.84.31-26.44.31s-26.44-.14-26.44-.31,11.83-.31,26.44-.31S434.94,767.24,434.94,767.42Z"/><path class="cls-7" d="M434.94,758.83c0,.16-11.84.31-26.44.31s-26.44-.15-26.44-.31,11.83-.31,26.44-.31S434.94,758.65,434.94,758.83Z"/><g class="cls-15"><path d="M381.82,764.26l53.14-1.4v-7.37H381.35Z"/></g><path class="cls-4" d="M518.86,754.19h-53.4v72.3h53.4Z"/><path class="cls-7" d="M465.87,825.25h52.59a7.25,7.25,0,0,1,5,2,6.61,6.61,0,0,1,2.09,4.8v.65H458.75V832a6.48,6.48,0,0,1,.54-2.6,6.78,6.78,0,0,1,1.54-2.21,7.21,7.21,0,0,1,2.32-1.47A7.42,7.42,0,0,1,465.87,825.25Z"/><path class="cls-4" d="M533.76,832.69h-81.1v11.77h81.1Z"/><path class="cls-7" d="M518.55,818.55c0,.16-11.83.31-26.43.31s-26.45-.15-26.45-.31,11.83-.31,26.45-.31S518.55,818.37,518.55,818.55Z"/><path class="cls-7" d="M518.55,809.94c0,.18-11.83.31-26.43.31s-26.45-.13-26.45-.31,11.83-.31,26.45-.31S518.55,809.78,518.55,809.94Z"/><path class="cls-7" d="M518.55,801.5c0,.17-11.83.31-26.43.31s-26.45-.14-26.45-.31,11.83-.31,26.45-.31S518.55,801.33,518.55,801.5Z"/><path class="cls-7" d="M518.55,792.91c0,.16-11.83.31-26.43.31s-26.45-.15-26.45-.31,11.83-.31,26.45-.31S518.55,792.79,518.55,792.91Z"/><path class="cls-7" d="M518.55,784.44c0,.18-11.83.31-26.43.31s-26.45-.13-26.45-.31,11.83-.31,26.45-.31S518.55,784.29,518.55,784.44Z"/><path class="cls-7" d="M518.55,775.86c0,.18-11.83.31-26.43.31s-26.45-.13-26.45-.31,11.83-.31,26.45-.31S518.55,775.69,518.55,775.86Z"/><path class="cls-7" d="M518.55,767.42c0,.17-11.83.31-26.43.31s-26.45-.14-26.45-.31,11.83-.31,26.45-.31S518.55,767.24,518.55,767.42Z"/><path class="cls-7" d="M518.55,758.83c0,.16-11.83.31-26.43.31s-26.45-.15-26.45-.31,11.83-.31,26.45-.31S518.55,758.65,518.55,758.83Z"/><g class="cls-15"><path d="M465.46,764.26l53.14-1.4v-7.37H465Z"/></g><path class="cls-4" d="M521.47,556.89l1.32-5a2.21,2.21,0,0,1,1-1.34,2.42,2.42,0,0,1,1.73-.24l21.4,5.16-2.45,9.25-21.38-5.16a2.25,2.25,0,0,1-1.4-1,2.08,2.08,0,0,1-.25-1.65Z"/><g class="cls-15"><path d="M521.47,556.89l1.32-5a2.21,2.21,0,0,1,1-1.34,2.42,2.42,0,0,1,1.73-.24l21.4,5.16-2.45,9.25-21.38-5.16a2.25,2.25,0,0,1-1.4-1,2.08,2.08,0,0,1-.25-1.65Z"/></g><path class="cls-4" d="M516.81,574.57l1.82-6.87a3.56,3.56,0,0,1,1.71-2.19,3.88,3.88,0,0,1,2.83-.4l19.93,4.81-3.66,13.87L519.56,579a3.78,3.78,0,0,1-1.36-.6,3.7,3.7,0,0,1-1-1,3.66,3.66,0,0,1-.49-1.35A3.57,3.57,0,0,1,516.81,574.57Z"/><path class="cls-4" d="M537.65,553.23l-6.23,23.57,9.32,2.25L547,555.48Z"/><path class="cls-4" d="M553.09,649.05s39.87-1.55,36.58-38c-2.5-28-46.06-28.21-46.06-28.21l11.13-23.23s50.87,4.23,60.91,39.61c11.35,40-14.89,72.59-62.56,71.82Z"/><path class="cls-7" d="M558,556.28l-15.15-3.2-7.46,32.22,15.16,3.2Z"/><path class="cls-14" d="M551.2,585.11c0,.27-3.45-.29-7.55-1.2a45.56,45.56,0,0,1-7.38-1.95,47.62,47.62,0,0,1,7.49,1.35c2.06.45,3.92.88,5.25,1.19l1.59.4A3.29,3.29,0,0,1,551.2,585.11Z"/><path class="cls-14" d="M552.53,579.3c0,.27-3.43-.29-7.55-1.19a44.36,44.36,0,0,1-7.36-2,50,50,0,0,1,7.49,1.35c2,.45,3.9.88,5.25,1.19l1.57.41A2.12,2.12,0,0,1,552.53,579.3Z"/><path class="cls-14" d="M554.14,573.45c0,.28-3.44-.28-7.49-1.19a46.52,46.52,0,0,1-7.37-2,50,50,0,0,1,7.49,1.35c2,.44,3.9.87,5.24,1.19l1.58.39Z"/><path class="cls-14" d="M555.21,567.7c0,.28-3.43-.28-7.48-1.19a44.32,44.32,0,0,1-7.38-2,50,50,0,0,1,7.49,1.35c2.06.45,3.9.88,5.25,1.19l1.58.41A2.06,2.06,0,0,1,555.21,567.7Z"/><path class="cls-14" d="M556.77,562.27c0,.28-3.43-.28-7.48-1.2a45.56,45.56,0,0,1-7.38-2,50,50,0,0,1,7.49,1.35c2.06.44,3.92.87,5.25,1.19l1.59.39A3.49,3.49,0,0,1,556.77,562.27Z"/><path class="cls-7" d="M561.8,670.76a16.51,16.51,0,0,1-.81-3.22c-.4-2-.87-4.77-1.25-7.88s-.56-6-.63-7.95a15.35,15.35,0,0,1,0-3.32,16.55,16.55,0,0,1,.42,3.28c.19,2,.45,4.83.83,7.92s.76,5.86,1,7.88A17.3,17.3,0,0,1,561.8,670.76Z"/><path class="cls-7" d="M574.2,668.91a106.58,106.58,0,0,1-3.64-11.37,110.23,110.23,0,0,1-3-11.56,115,115,0,0,1,3.63,11.39A111.77,111.77,0,0,1,574.2,668.91Z"/><path class="cls-7" d="M590.86,663.21a21.66,21.66,0,0,1-2.14-3.16c-1.35-2.15-3-4.77-4.85-7.77L579,644.53a23.49,23.49,0,0,1-1.93-3.28,20.47,20.47,0,0,1,2.31,3c1.35,1.93,3.16,4.64,5,7.67s3.56,5.83,4.71,7.88A21.81,21.81,0,0,1,590.86,663.21Z"/><path class="cls-7" d="M604.87,652.48c-.12.13-5.08-3.57-11.08-8.34s-10.78-8.73-10.67-8.86,5.08,3.58,11.08,8.35S605,652.34,604.87,652.48Z"/><path class="cls-7" d="M613.89,637.82c-.07.17-5.94-2-13.11-4.88s-12.93-5.29-12.86-5.44,5.94,2,13.11,4.87S614,637.6,613.89,637.82Z"/><path class="cls-7" d="M618.31,621.88a31.07,31.07,0,0,1-4.2-.38L604,620.31l-10.09-1.19a27.76,27.76,0,0,1-4.17-.61,27,27,0,0,1,4.22.16c2.59.2,6.17.53,10.12,1s7.48,1,10.08,1.37A27.51,27.51,0,0,1,618.31,621.88Z"/><path class="cls-7" d="M616.25,605.41a23.24,23.24,0,0,1-3.74,1.19c-2.36.65-5.66,1.46-9.32,2.2s-7,1.27-9.46,1.58a22.83,22.83,0,0,1-4,.32,28.74,28.74,0,0,1,3.89-.76c2.41-.42,5.73-1,9.39-1.74s7-1.48,9.33-2A28.16,28.16,0,0,1,616.25,605.41Z"/><path class="cls-7" d="M611.23,589.6c.08.15-5.26,2.88-11.94,6.1s-12.15,5.7-12.24,5.55,5.27-2.89,11.94-6.11S611.15,589.46,611.23,589.6Z"/><path class="cls-7" d="M600.91,576.78c.12.14-4.33,4-10,8.59s-10.23,8.23-10.34,8.1,4.31-4,10-8.58S600.84,576.65,600.91,576.78Z"/><path class="cls-7" d="M583.61,567.27c.15.08-2.66,4.77-6.24,10.53A119.51,119.51,0,0,1,570.53,588c-.15-.08,2.65-4.76,6.24-10.53A117.2,117.2,0,0,1,583.61,567.27Z"/><path class="cls-7" d="M568.07,561.31a116.4,116.4,0,0,1-3.75,11.76c-2.22,6.43-4.16,11.61-4.33,11.56a116.58,116.58,0,0,1,3.75-11.77A114.72,114.72,0,0,1,568.07,561.31Z"/><g class="cls-15"><path d="M586.79,629.69a30.08,30.08,0,0,1-14.45,14.16,47,47,0,0,1-9.79,3.65c7.63,3.89,17.59,1.56,24.25-3.7s10.18-13.6,10.42-21.86a24.82,24.82,0,0,0-2.16-11.44c-1.7-3.58-4.5-7.3-8.21-8.94a21.44,21.44,0,0,1,2.32,6.25A35.07,35.07,0,0,1,586.79,629.69Z"/></g><path class="cls-7" d="M293.7,694a9.73,9.73,0,0,1,1.25,1.32c.77.87,1.82,2.17,3.07,3.83a83.06,83.06,0,0,1,8.25,13.78A79.56,79.56,0,0,1,311.62,728c.49,2,.81,3.58,1,4.77a10.44,10.44,0,0,1,.21,1.77,8.57,8.57,0,0,1-.46-1.72c-.25-1.11-.65-2.71-1.17-4.66a94,94,0,0,0-5.51-14.91,95.45,95.45,0,0,0-8-13.83c-1.19-1.68-2.17-3-2.88-3.94A9,9,0,0,1,293.7,694Z"/><path class="cls-7" d="M288.4,689.77c.12-.13.71.18,1.32.7s1,1,.89,1.19-.71-.18-1.33-.7S288.29,689.89,288.4,689.77Z"/><path class="cls-7" d="M289.62,686.26c.15-.08.76.62,1.37,1.6s1,1.83.83,1.91-.78-.62-1.39-1.6S289.46,686.35,289.62,686.26Z"/><path class="cls-14" d="M312.71,735.23a6.15,6.15,0,0,1,.19-1c.17-.67.4-1.58.67-2.72.59-2.38,1.42-5.77,2.38-10,1.93-8.46,4.26-20.26,6-33.38.92-6.53,1.25-12.87,2.84-18.46a27.69,27.69,0,0,1,3.35-7.52,23.51,23.51,0,0,1,14.63-9.81,20.13,20.13,0,0,1,2.89-.42,5.79,5.79,0,0,1,1,0,6.82,6.82,0,0,1-1,.14,27.49,27.49,0,0,0-2.85.53,24.48,24.48,0,0,0-9.41,4.6,22.16,22.16,0,0,0-4.81,5.24,26.89,26.89,0,0,0-3.23,7.42c-1.55,5.5-1.86,11.83-2.77,18.39a329.14,329.14,0,0,1-6.17,33.38c-1,4.23-1.93,7.63-2.58,10-.33,1.13-.59,2-.79,2.69A5.77,5.77,0,0,1,312.71,735.23Z"/><path class="cls-7" d="M314.19,640.7a19,19,0,0,0,3.19,4.44,21.43,21.43,0,0,0,12,5.58,47.55,47.55,0,0,0,13.63-.55l4.1-.69a7.81,7.81,0,0,1,1.53-.19,7.6,7.6,0,0,1-1.48.43c-1,.22-2.34.54-4.08.88a43,43,0,0,1-13.72.72,20.9,20.9,0,0,1-12.25-5.88,13,13,0,0,1-2.34-3.35A4.69,4.69,0,0,1,314.19,640.7Z"/><path class="cls-7" d="M309.45,636.94c.13-.12.73.25,1.32.83s1,1.19.88,1.26-.73-.25-1.32-.82S309.33,637.06,309.45,636.94Z"/><path class="cls-7" d="M310.86,634.86c.16-.09.73.52,1.25,1.35s.86,1.6.7,1.68-.71-.51-1.25-1.35S310.71,635,310.86,634.86Z"/><path class="cls-7" d="M314.77,634.59c.19,0,.21.73.07,1.57s-.4,1.49-.57,1.47-.21-.73-.08-1.58S314.59,634.56,314.77,634.59Z"/><path class="cls-14" d="M326.52,681.14a10.73,10.73,0,0,1-.1,2.12c-.11,1.37-.32,3.34-.62,5.76-.59,4.86-1.62,11.54-3.18,18.84s-3.36,13.86-4.79,18.55c-.73,2.39-1.35,4.24-1.8,5.52a15.45,15.45,0,0,1-.77,2,15.15,15.15,0,0,1,.52-2.06c.41-1.41,1-3.29,1.6-5.57,1.32-4.76,3-11.25,4.6-18.54s2.66-14,3.37-18.78c.34-2.38.61-4.28.81-5.73A18.42,18.42,0,0,1,326.52,681.14Z"/><path class="cls-14" d="M348.65,653.54c0,.12-1.78.13-4.54.82a22.85,22.85,0,0,0-9.64,5,21.41,21.41,0,0,0-6,8.78c-.95,2.56-1.1,4.28-1.25,4.25a3.4,3.4,0,0,1,0-1.19,17.52,17.52,0,0,1,.72-3.19,20.61,20.61,0,0,1,6-9.1,22,22,0,0,1,10-5,19.3,19.3,0,0,1,3.39-.44A4.36,4.36,0,0,1,348.65,653.54Z"/><path class="cls-14" d="M318.62,735a6.61,6.61,0,0,1,0-.89,21,21,0,0,1,.32-2.56,23.11,23.11,0,0,1,2.95-9c1.05-1.75,2.5-3.47,3.67-5.49a11.13,11.13,0,0,0,1.25-3.32,12.81,12.81,0,0,0,.1-3.76c-.2-2.59-1-5.38-.37-8.35a9.94,9.94,0,0,1,2-4c.91-1.19,2-2.38,2.81-3.57a7.34,7.34,0,0,0,1.4-4.07,17,17,0,0,0-.6-4.26,23.94,23.94,0,0,1-.72-8.34,23,23,0,0,1,4-11.07,24.45,24.45,0,0,1,9.11-7.87,22,22,0,0,1,2.5-1.05A5.73,5.73,0,0,1,348,657a4.28,4.28,0,0,1-.84.39,21.43,21.43,0,0,0-2.4,1.19,25.37,25.37,0,0,0-7.43,6A22.93,22.93,0,0,0,332,677.38a23.73,23.73,0,0,0,.75,8.13,17.76,17.76,0,0,1,.62,4.4,7.88,7.88,0,0,1-1.51,4.39c-.87,1.32-1.93,2.44-2.82,3.63a9.29,9.29,0,0,0-1.89,3.81c-.59,2.75.15,5.5.35,8.15a13.91,13.91,0,0,1-.14,3.92,11.79,11.79,0,0,1-1.39,3.46c-1.25,2.07-2.69,3.77-3.74,5.47a24.13,24.13,0,0,0-3.1,8.85c-.18,1-.32,1.89-.43,2.52A4.15,4.15,0,0,1,318.62,735Z"/><path class="cls-8" d="M350.07,665.89a11.07,11.07,0,0,0-9.52,5.34c-2,2.85-2.88,6.94-3.36,11.45A135.81,135.81,0,0,1,335,697.42a229.61,229.61,0,0,1-7.49,26c-1.12,3.28-2.06,6-2.73,7.74-.31.86-.57,1.55-.77,2.09a3.06,3.06,0,0,1-.33.71,4.45,4.45,0,0,1,.23-.79c.16-.54.38-1.25.66-2.12l2.49-7.79c2.11-6.6,5-15.71,7.24-26a146.6,146.6,0,0,0,2.32-14.63c.5-4.54,1.46-8.7,3.58-11.61a12.12,12.12,0,0,1,6.77-4.91,7.89,7.89,0,0,1,2.32-.28A5.55,5.55,0,0,1,350.07,665.89Z"/><path class="cls-4" d="M304.26,730.72h24.17s-14.66,111.2-95.6,110.86l1-21.68S288.92,816.63,304.26,730.72Z"/><path class="cls-4" d="M200.4,820.56l.1-5.12a2.14,2.14,0,0,1,.69-1.53,2.36,2.36,0,0,1,1.63-.61l22,.37-.18,9.53-22-.37a2.43,2.43,0,0,1-.88-.18,2.36,2.36,0,0,1-.74-.5,2,2,0,0,1-.47-.73A2.14,2.14,0,0,1,200.4,820.56Z"/><g class="cls-15"><path d="M200.4,820.56l.1-5.12a2.14,2.14,0,0,1,.69-1.53,2.36,2.36,0,0,1,1.63-.61l22,.37-.18,9.53-22-.37a2.43,2.43,0,0,1-.88-.18,2.36,2.36,0,0,1-.74-.5,2,2,0,0,1-.47-.73A2.14,2.14,0,0,1,200.4,820.56Z"/></g><path class="cls-4" d="M200.33,840.08l.15-7.08a3.54,3.54,0,0,1,1.15-2.51,3.84,3.84,0,0,1,2.67-1l20.55.4-.3,14.3-20.47-.39a3.85,3.85,0,0,1-1.47-.29,3.56,3.56,0,0,1-1.23-.81,3.63,3.63,0,0,1-.81-1.21A3.58,3.58,0,0,1,200.33,840.08Z"/><path class="cls-4" d="M215.28,813.48l-.45,24.3,9.6.17.45-24.31Z"/><path class="cls-7" d="M235.82,812l-15.53.18.43,33,15.52-.18Z"/><path class="cls-14" d="M236.06,841.54c0,.28-3.42.48-7.63.5a44.48,44.48,0,0,1-7.65-.3,50,50,0,0,1,7.64-.33h7A4.29,4.29,0,0,1,236.06,841.54Z"/><path class="cls-14" d="M236,835.61c0,.27-3.41.46-7.62.49a46.59,46.59,0,0,1-7.65-.3,50,50,0,0,1,7.64-.32h7A2,2,0,0,1,236,835.61Z"/><path class="cls-14" d="M236.16,829.61c0,.27-3.41.47-7.63.49a46.3,46.3,0,0,1-7.63-.3,49.86,49.86,0,0,1,7.63-.32h7A2.47,2.47,0,0,1,236.16,829.61Z"/><path class="cls-14" d="M235.83,823.78c0,.27-3.42.48-7.63.5a44.33,44.33,0,0,1-7.64-.31,50,50,0,0,1,7.64-.32h7A3,3,0,0,1,235.83,823.78Z"/><path class="cls-14" d="M236.06,818.09c0,.28-3.42.48-7.63.51a48.91,48.91,0,0,1-7.65-.3,46.48,46.48,0,0,1,7.64-.32h7A4.21,4.21,0,0,1,236.06,818.09Z"/><path class="cls-7" d="M244.55,840.47a4.06,4.06,0,0,0,.07.6v.69l-.21-.67A94.9,94.9,0,0,1,242,830.17c-.53-3.21-.89-6.11-1.11-8.24a17.21,17.21,0,0,1-.16-3.44,21.66,21.66,0,0,1,.63,3.4c.31,2.09.74,5,1.24,8.19.86,5.17,1.75,9.53,1.94,11h-.2C244.47,840.64,244.51,840.47,244.55,840.47Z"/><path class="cls-7" d="M256,838.34a108.05,108.05,0,0,1-4-11.23,106,106,0,0,1-3.41-11.41,107.23,107.23,0,0,1,4,11.23A106,106,0,0,1,256,838.34Z"/><path class="cls-7" d="M269.59,832.86a114.6,114.6,0,0,1-6-10.8c-3.12-6-5.53-11-5.37-11.08a115.93,115.93,0,0,1,5.95,10.81C267.35,827.83,269.74,832.79,269.59,832.86Z"/><path class="cls-7" d="M281.61,824.28a108.56,108.56,0,0,1-7.71-9.43,114.28,114.28,0,0,1-7.2-9.81,117.7,117.7,0,0,1,7.72,9.44C278.53,819.8,281.75,824.19,281.61,824.28Z"/><path class="cls-7" d="M292.11,814.77a112.41,112.41,0,0,1-9-8.17,117,117,0,0,1-8.51-8.6,115.74,115.74,0,0,1,9,8.16C286.57,808.89,289.42,811.77,292.11,814.77Z"/><path class="cls-7" d="M300.75,803.35a18.46,18.46,0,0,1-3.13-1.6l-7.39-4.12-7.37-4.11a19.18,19.18,0,0,1-3-1.83,19.4,19.4,0,0,1,3.22,1.44c1.95,1,4.6,2.39,7.49,4s5.45,3.15,7.29,4.29A19.21,19.21,0,0,1,300.75,803.35Z"/><path class="cls-7" d="M306.61,791.79a18.18,18.18,0,0,1-3-1.3c-1.83-.86-4.38-2-7.2-3.29s-5.41-2.33-7.28-3.11a19.92,19.92,0,0,1-3-1.36,15.23,15.23,0,0,1,3.17.95c1.92.68,4.55,1.7,7.4,3s5.35,2.5,7.14,3.45A17.17,17.17,0,0,1,306.61,791.79Z"/><path class="cls-7" d="M313.6,780.61a19.19,19.19,0,0,1-3.46-.55c-2.12-.44-5-1.12-8.2-2s-6-1.8-8.05-2.51a18.48,18.48,0,0,1-3.23-1.3,21.8,21.8,0,0,1,3.38.88l8.07,2.39c3.16.93,6,1.62,8.13,2.17A19.7,19.7,0,0,1,313.6,780.61Z"/><path class="cls-7" d="M317.33,769.33a109,109,0,0,1-11.55-1.1,110.1,110.1,0,0,1-11.45-1.7,111.49,111.49,0,0,1,11.54,1.09A105.2,105.2,0,0,1,317.33,769.33Z"/><path class="cls-7" d="M321.29,758.3a17.06,17.06,0,0,1-3.35-.09c-2.07-.15-4.93-.39-8.08-.68s-6-.61-8.05-.87a18.69,18.69,0,0,1-3.32-.54,18,18,0,0,1,3.37.11c2.08.14,4.92.38,8.07.68s6,.6,8.05.85A20.4,20.4,0,0,1,321.29,758.3Z"/><path class="cls-7" d="M324.35,747.62c-4,.42-8,.65-12,.67a115.13,115.13,0,0,1-12,0,117.8,117.8,0,0,1,12-.67A115.13,115.13,0,0,1,324.35,747.62Z"/><path class="cls-7" d="M325.61,738.89a16.54,16.54,0,0,1-3.29.49c-2.05.21-4.88.37-8,.38s-6-.13-8-.31A16.6,16.6,0,0,1,303,739a20.45,20.45,0,0,1,3.32,0c2,.07,4.86.16,8,.13s6-.12,8-.2A19.49,19.49,0,0,1,325.61,738.89Z"/><path class="cls-6" d="M305.31,734a.76.76,0,0,1,0,.3v.88c0,.77,0,1.92-.09,3.38A84.73,84.73,0,0,1,303.69,751a90.27,90.27,0,0,1-5.43,17.75,92.42,92.42,0,0,1-27.46,36.45,98.42,98.42,0,0,1-15.92,10.53,91.46,91.46,0,0,1-11.82,5.3c-1.42.55-2.57.89-3.33,1.2l-.88.27a1,1,0,0,1-.31.07,1.08,1.08,0,0,1,.29-.13l.85-.33c.75-.3,1.88-.67,3.29-1.19a107,107,0,0,0,11.68-5.46,98.35,98.35,0,0,0,31.7-27.11,93,93,0,0,0,17-37.27,91.18,91.18,0,0,0,1.74-12.31c.14-1.45.14-2.6.2-3.37v-.89A1,1,0,0,1,305.31,734Z"/><path class="cls-4" d="M417.36,604.44S404,587.14,373,589.71c0,0,31.52-23.13,13-46.89,0,0,39.8,11.23,40.25-36.28,0,0,7.24,44.1,44.77,31.54,0,0,2.67,35,28.64,28.53-12.56,11.8-24.78,22.2-22.28,37.3"/><g class="cls-16"><path class="cls-6" d="M417.36,604.44S404,587.14,373,589.71c0,0,31.52-23.13,13-46.89,0,0,39.8,11.23,40.25-36.28,0,0,7.24,44.1,44.77,31.54,0,0,2.67,35,28.64,28.53-12.56,11.8-24.78,22.2-22.28,37.3"/></g><path class="cls-4" d="M417.36,604.44s-.31-20.17-25.18-18.11c0,0,23.12-12.74,8.24-31.82,0,0,32,9,32.33-29.15,0,0,5.8,35.39,36,25.33,0,0-3.61,25.68,17.27,20.47-10.1,9.54-14.19,20.26-12.19,32.42"/><g class="cls-17"><path class="cls-6" d="M417.36,604.44s-.31-20.17-25.18-18.11c0,0,23.12-12.74,8.24-31.82,0,0,32,9,32.33-29.15,0,0,5.8,35.39,36,25.33,0,0-3.61,25.68,17.27,20.47-10.1,9.54-14.19,20.26-12.19,32.42"/></g><path class="cls-4" d="M458.21,470.64a4.89,4.89,0,0,1-.3.75l-1,2.1c-.43.91-1,2-1.52,3.34s-1.25,2.78-1.88,4.46-1.41,3.49-2.1,5.48-1.4,4.13-2.12,6.38a147.41,147.41,0,0,0-3.68,14.92,141.71,141.71,0,0,0-2,15.21c-.15,2.39-.31,4.59-.34,6.69s-.06,4,0,5.83.1,3.4.15,4.77.13,2.63.22,3.58.11,1.7.15,2.28a3.66,3.66,0,0,1,0,.81,5.45,5.45,0,0,1-.14-.79c-.06-.59-.15-1.35-.26-2.29s-.25-2.21-.33-3.58-.22-3-.24-4.77-.09-3.74,0-5.85.15-4.35.28-6.71a129.75,129.75,0,0,1,5.7-30.27c.74-2.25,1.43-4.41,2.19-6.38s1.47-3.81,2.17-5.47,1.4-3.14,2-4.44,1.15-2.39,1.63-3.31l1.08-2.05A3.68,3.68,0,0,1,458.21,470.64Z"/><path class="cls-4" d="M368.88,462.45a41.44,41.44,0,0,0-7.49-5.35,43,43,0,0,0-8.81-3,8.65,8.65,0,0,1,2.78.26,23.82,23.82,0,0,1,6.34,2.19,23.3,23.3,0,0,1,5.42,3.83A7.91,7.91,0,0,1,368.88,462.45Z"/><path class="cls-4" d="M378.46,514.34a2.71,2.71,0,0,1,.53.48l1.38,1.42c1.25,1.19,2.89,3.09,4.88,5.43s4.28,5.21,6.69,8.48,4.89,7,7.32,11,4.51,7.91,6.31,11.52,3.24,6.94,4.37,9.77,2,5.14,2.49,6.74L413,571a2.64,2.64,0,0,1,.17.67,2.56,2.56,0,0,1-.29-.63l-.73-1.81c-.58-1.59-1.49-3.88-2.68-6.67s-2.69-6.07-4.48-9.67-3.93-7.48-6.34-11.47-4.89-7.66-7.24-10.95-4.6-6.17-6.56-8.53-3.56-4.27-4.71-5.56l-1.24-1.49A2.54,2.54,0,0,1,378.46,514.34Z"/><path class="cls-4" d="M464.27,520.44a1.68,1.68,0,0,1-.26.54l-.83,1.49c-.39.65-.84,1.43-1.33,2.39s-1.08,2-1.64,3.18a80.76,80.76,0,0,0-3.75,8.54,88.33,88.33,0,0,0-5.66,31.24c0,1.31,0,2.5.06,3.58s.07,1.94.12,2.68.07,1.19.09,1.69a1.52,1.52,0,0,1,0,.6,2.36,2.36,0,0,1-.11-.59c-.06-.45-.13-1-.21-1.69s-.19-1.63-.24-2.68-.16-2.24-.16-3.58a79.81,79.81,0,0,1,.35-9.28,83.21,83.21,0,0,1,9.07-30.69c.59-1.19,1.25-2.23,1.75-3.16s1-1.7,1.41-2.38.7-1.05.95-1.44A2.05,2.05,0,0,1,464.27,520.44Z"/><path class="cls-4" d="M488.78,525.06a33.38,33.38,0,0,1-2.69,2.23A44.35,44.35,0,0,0,475.46,540a30.69,30.69,0,0,1-1.69,3,13,13,0,0,1,1.25-3.22A36.47,36.47,0,0,1,485.76,527,14,14,0,0,1,488.78,525.06Z"/><path class="cls-4" d="M384.58,555.46a15,15,0,0,1,3,1.82,42.44,42.44,0,0,1,6.44,5.58,41,41,0,0,1,5.15,6.69,13.46,13.46,0,0,1,1.58,3.09,32.28,32.28,0,0,1-2-2.86,53.51,53.51,0,0,0-5.24-6.51,55.64,55.64,0,0,0-6.24-5.64A27.74,27.74,0,0,1,384.58,555.46Z"/><path class="cls-4" d="M378.25,544.37c-.1.17-2.64-1.19-6.09-2s-6.35-.85-6.35-1a18.72,18.72,0,0,1,12.48,3.06Z"/><path class="cls-18" d="M352.57,507.06a8,8,0,0,1,.82-2l-1.13-1.64,2.37-2.39,1.76,1a8.78,8.78,0,0,1,2.05-.85l.42-1.92,3.41-.06.48,1.92a8.72,8.72,0,0,1,2.07.77l1.73-1.07,2.49,2.27L368,504.81a7.47,7.47,0,0,1,.89,1.95l2,.4v3.26l-2,.47a7.83,7.83,0,0,1-.82,2l1.13,1.66-2.37,2.38-1.77-1a8.24,8.24,0,0,1-2,.85l-.47,1.89h-3.4l-.49-1.91a8.91,8.91,0,0,1-2.07-.78L354.87,517l-2.5-2.26,1.07-1.69a6.94,6.94,0,0,1-.88-1.94l-2-.4v-3.26l2-.46Zm4.49,1.85a3.36,3.36,0,0,0,.67,1.92,3.57,3.57,0,0,0,1.66,1.25,3.83,3.83,0,0,0,2.12.15,3.64,3.64,0,0,0,1.85-1,3.36,3.36,0,0,0,.71-3.81,3.58,3.58,0,0,0-1.37-1.54,3.74,3.74,0,0,0-3.44-.26,3.58,3.58,0,0,0-1.17.78,3.42,3.42,0,0,0-.77,1.15,3.48,3.48,0,0,0-.25,1.35Z"/><path class="cls-19" d="M495.55,595.14a5.7,5.7,0,0,1,.6-1.45l-.84-1.19,1.76-1.73,1.25.75a6.16,6.16,0,0,1,1.5-.62l.31-1.42h2.49l.37,1.42a5.94,5.94,0,0,1,1.52.57l1.25-.8,1.81,1.68-.79,1.2a5.61,5.61,0,0,1,.65,1.43l1.48.29v2.39l-1.48.34a6,6,0,0,1-.6,1.46l.82,1.19-1.74,1.73-1.25-.75a6.24,6.24,0,0,1-1.51.62l-.3,1.42h-2.5l-.36-1.41a6.79,6.79,0,0,1-1.52-.57l-1.25.78-1.76-1.61.79-1.19a5.84,5.84,0,0,1-.65-1.44l-1.49-.3v-2.38l1.49-.35Zm3.32,1.36a2.38,2.38,0,0,0,.22,1,2.55,2.55,0,0,0,.6.83,2.49,2.49,0,0,0,.88.54,2.84,2.84,0,0,0,2.07,0,2.75,2.75,0,0,0,.86-.57,2.5,2.5,0,0,0,.57-.84,2.42,2.42,0,0,0,.19-1,2.53,2.53,0,0,0-.82-1.81,2.74,2.74,0,0,0-1.92-.73,2.79,2.79,0,0,0-1.89.79A2.51,2.51,0,0,0,498.87,596.5Z"/><path class="cls-8" d="M470.5,492.07l-5.59,11.23,5.33,2.41,5.58-11.23Z"/><path class="cls-7" d="M464.89,503.3a14.2,14.2,0,0,1,1.53.59c.95.38,2.28.93,3.88,1.62l-.31.11c1.4-2.92,3.33-6.9,5.5-11.27-.13-.37.19.52.15.42h-.16l-.17-.07-.35-.17-.7-.31-1.35-.62-2.57-1.19.41-.13c-1.61,3.19-3.06,6-4.09,7.91-.5.91-.91,1.68-1.25,2.33a5,5,0,0,1-.51.86,3.34,3.34,0,0,1,.32-.81c.29-.65.65-1.42,1.06-2.33.94-2,2.29-4.89,3.92-8.21l.14-.28.27.13,2.59,1.2,1.36.6.68.31.35.17.18.07h.17c0-.09.29.79.15.42-2.17,4.36-4.17,8.34-5.66,11.19l-.1.21-.21-.11c-1.68-.79-3-1.44-3.9-1.9A8.66,8.66,0,0,1,464.89,503.3Z"/><path class="cls-8" d="M475.31,488.51a5.82,5.82,0,0,0-2.05-.5,5.72,5.72,0,0,0-2.1.3,5.65,5.65,0,0,0-1.82,1,5.41,5.41,0,0,0-1.26,1.63l9.81,4.46a5.06,5.06,0,0,0,.52-2,4.88,4.88,0,0,0-.31-2,5,5,0,0,0-1.09-1.74A5.39,5.39,0,0,0,475.31,488.51Z"/><path class="cls-7" d="M475.31,488.51a1.55,1.55,0,0,1,.61.22,5.26,5.26,0,0,1,1.4,1.07,5,5,0,0,1,1.24,2.38,5.07,5.07,0,0,1-.4,3.38l-.11.26-.28-.12-4.91-2.2-4.92-2.31-.27-.11.14-.27a5.57,5.57,0,0,1,2.49-2.38,5.63,5.63,0,0,1,2.71-.57,5,5,0,0,1,1.75.35c.38.17.57.29.55.31a11.8,11.8,0,0,0-2.3-.32,5.45,5.45,0,0,0-2.5.66,5.06,5.06,0,0,0-2.19,2.25l-.14-.38,4.92,2.21,4.89,2.24-.4.14a4.82,4.82,0,0,0,.45-3.05,5,5,0,0,0-1-2.24A9.77,9.77,0,0,0,475.31,488.51Z"/><path class="cls-8" d="M475.43,491.48a3.13,3.13,0,0,0,0-1.82,3.25,3.25,0,0,0-1-1.52"/><path class="cls-7" d="M474.36,488.14c.09-.15,1,.32,1.35,1.43s-.12,2-.28,1.91,0-.85-.34-1.73S474.25,488.28,474.36,488.14Z"/><path class="cls-7" d="M469.44,493.66a11.91,11.91,0,0,1,2.85,1.12,11.75,11.75,0,0,1,2.78,1.3,6,6,0,0,1-3.05-.74C470.43,494.66,469.34,493.79,469.44,493.66Z"/><path class="cls-7" d="M468.78,495a12.8,12.8,0,0,1,2.86,1.19,12.06,12.06,0,0,1,2.77,1.29,5.79,5.79,0,0,1-3.05-.73C469.78,496,468.63,495.12,468.78,495Z"/><path class="cls-7" d="M468.13,496.3a11.13,11.13,0,0,1,2.85,1.12,11.75,11.75,0,0,1,2.78,1.3,6.19,6.19,0,0,1-3.05-.73C469.12,497.3,468,496.43,468.13,496.3Z"/><path class="cls-7" d="M467.47,497.61a12.8,12.8,0,0,1,2.86,1.19,11.65,11.65,0,0,1,2.77,1.29,6,6,0,0,1-3.05-.73C468.47,498.62,467.38,497.75,467.47,497.61Z"/><path class="cls-7" d="M466.81,498.93a12.15,12.15,0,0,1,2.86,1.12,12.81,12.81,0,0,1,2.78,1.3,9.11,9.11,0,0,1-5.64-2.38Z"/><path class="cls-7" d="M466.13,500.25a11.82,11.82,0,0,1,2.86,1.12,12.09,12.09,0,0,1,2.77,1.3,9.24,9.24,0,0,1-5.63-2.38Z"/><path class="cls-7" d="M465.5,501.56a12.38,12.38,0,0,1,2.86,1.2,11.62,11.62,0,0,1,2.77,1.28,5.82,5.82,0,0,1-3-.72C466.5,502.58,465.4,501.71,465.5,501.56Z"/><path class="cls-8" d="M347.37,588.89,335.51,594l2.44,5.13L349.8,594Z"/><path class="cls-7" d="M349.79,594a13.65,13.65,0,0,1-.78-1.39c-.46-.87-1.11-2.11-1.87-3.58l.31.11c-3,1.37-7.21,3.22-11.8,5.21-.15.37.18-.5.16-.41V594l.07.17.17.34.31.66c.21.44.41.87.62,1.3l1.16,2.49-.41-.14c3.41-1.45,6.35-2.66,8.49-3.58l2.49-1a6.68,6.68,0,0,1,1-.34,4.64,4.64,0,0,1-.79.43l-2.38,1.12c-2.08.95-5,2.32-8.55,3.86l-.29.12-.12-.28c-.39-.78-.78-1.62-1.25-2.46-.21-.43-.41-.87-.63-1.31l-.31-.66-.16-.35-.09-.16v-.15l.16-.4c4.61-2,8.8-3.78,11.9-5.06l.21-.09.1.2c.74,1.65,1.31,3,1.68,3.86A6.79,6.79,0,0,1,349.79,594Z"/><path class="cls-8" d="M331.87,598.91a5.2,5.2,0,0,0,1.23,1.65,5.55,5.55,0,0,0,1.8,1.07A5.72,5.72,0,0,0,337,602a5.83,5.83,0,0,0,2.06-.46L334.56,592a5.38,5.38,0,0,0-1.72,1.18,5.11,5.11,0,0,0-1.12,1.72,4.9,4.9,0,0,0-.34,2A4.85,4.85,0,0,0,331.87,598.91Z"/><path class="cls-7" d="M331.87,598.91a2.67,2.67,0,0,1-.33-.53,4.67,4.67,0,0,1-.34-1.69,5,5,0,0,1,.65-2.57,5.62,5.62,0,0,1,2.59-2.39l.27-.12.13.27q1.07,2.19,2.27,4.76l2.22,4.77.12.26-.27.12a5.83,5.83,0,0,1-3.55.31,5.5,5.5,0,0,1-2.49-1.19,4.77,4.77,0,0,1-1.1-1.35c-.19-.37-.25-.57-.21-.58a9.66,9.66,0,0,0,1.53,1.67,5.36,5.36,0,0,0,2.67,1.07,5.48,5.48,0,0,0,2.86-.42l-.15.39-2.27-4.77c-.77-1.67-1.52-3.26-2.22-4.77l.4.14a5.32,5.32,0,0,0-2.22,1.78,4.89,4.89,0,0,0-.9,2.62A9.33,9.33,0,0,0,331.87,598.91Z"/><path class="cls-8" d="M333.77,596.57a3.35,3.35,0,0,0-1.2,1.41,3.18,3.18,0,0,0-.23,1.8"/><path class="cls-7" d="M332.34,599.78c-.16.07-.55-.87-.08-1.92s1.45-1.44,1.51-1.29-.53.67-.91,1.53S332.53,599.74,332.34,599.78Z"/><path class="cls-7" d="M339.83,598.6A10.53,10.53,0,0,1,338.4,596a11.44,11.44,0,0,1-1.24-2.71A8.4,8.4,0,0,1,339.83,598.6Z"/><path class="cls-7" d="M341.21,598a11.09,11.09,0,0,1-1.42-2.62,11.74,11.74,0,0,1-1.25-2.69c.14-.11,1.08.92,1.82,2.38A5.14,5.14,0,0,1,341.21,598Z"/><path class="cls-7" d="M342.59,597.4a10.9,10.9,0,0,1-1.43-2.61,11.09,11.09,0,0,1-1.25-2.71A8.36,8.36,0,0,1,342.59,597.4Z"/><path class="cls-7" d="M344,596.8a11.71,11.71,0,0,1-1.43-2.62,11.44,11.44,0,0,1-1.24-2.71,5.58,5.58,0,0,1,1.82,2.38A5.28,5.28,0,0,1,344,596.8Z"/><path class="cls-7" d="M345.39,596.19a11.09,11.09,0,0,1-1.42-2.62,10.86,10.86,0,0,1-1.25-2.7A8.33,8.33,0,0,1,345.39,596.19Z"/><path class="cls-7" d="M346.78,595.58a46,46,0,0,1-2.67-5.31,5.53,5.53,0,0,1,1.82,2.38A5.21,5.21,0,0,1,346.78,595.58Z"/><path class="cls-7" d="M348.18,595a45.59,45.59,0,0,1-2.67-5.32c.13-.11,1.08.92,1.83,2.39A5.37,5.37,0,0,1,348.18,595Z"/><path class="cls-4" d="M373.19,448.73S388.3,463,392.07,471.89c3.58,8.48,5.95,16.37,5.95,16.37s3.89-6.51,8.27,0,25.09,85.56,28.5,115.31H448s-6.14-49.74-9.06-55.32-5.37-7.44-5.37-7.44-3.41-20.94-5.84-24.19a16.21,16.21,0,0,0-5.35-4.65s-4.38-22.78-10.71-27.42-11.23-2.32-11.23-2.32S396.42,457.82,373.19,448.73Z"/><path class="cls-14" d="M496.92,554.37a47.77,47.77,0,0,0-16.73,7.28,8.35,8.35,0,0,1,2-1.77,30.88,30.88,0,0,1,12-5.21A9.52,9.52,0,0,1,496.92,554.37Z"/><path class="cls-14" d="M496.41,551.82a92.42,92.42,0,0,0-8.81,3.75c-4.66,2.45-7.84,5.3-8,5.14a10.22,10.22,0,0,1,2-1.94,35.41,35.41,0,0,1,5.67-3.74,34.86,34.86,0,0,1,6.32-2.6A10.31,10.31,0,0,1,496.41,551.82Z"/><path class="cls-14" d="M493.85,558c0,.19-2.74.23-6,1.12s-5.6,2.21-5.7,2A17.15,17.15,0,0,1,493.85,558Z"/><path class="cls-7" d="M464.74,603.45c-2.21-16.69,3.53-36.26,17.47-45.63l3.32,2.58s-17.36,9.88-16.09,43.17"/><path class="cls-14" d="M393,579.41a42.64,42.64,0,0,0-6.71,2.85,44.41,44.41,0,0,0-5.69,4.42,17.06,17.06,0,0,1,5.36-4.95A17.75,17.75,0,0,1,393,579.41Z"/><path class="cls-14" d="M392.67,577.93a64.89,64.89,0,0,1-6.79,2.5,65.62,65.62,0,0,1-6.87,2.39,49.91,49.91,0,0,1,13.66-4.89Z"/><path class="cls-7" d="M431.12,607.56l-6-1.5a12.3,12.3,0,0,0-.22-7.28,12.91,12.91,0,0,0-4.34-6,10.69,10.69,0,0,1-2.17,5.07,11.37,11.37,0,0,1-4.46,3.43,10.22,10.22,0,0,1-8.29-.5,8.43,8.43,0,0,1-2.93-2.32,8.08,8.08,0,0,1-1.61-3.3,9.09,9.09,0,0,1,.87-5.49,9.66,9.66,0,0,1,4-4,12.65,12.65,0,0,1,4.57-1.48,3.79,3.79,0,0,0-.45-.34,17.35,17.35,0,0,0-18.82-.49l-3.52-4.93a23.78,23.78,0,0,1,26.14.67,18.2,18.2,0,0,1,5.43,6.22,19.48,19.48,0,0,1,10.37,9,18.14,18.14,0,0,1,1.51,13.31Zm-18.65-17.63a7,7,0,0,0-3.44.8,3.64,3.64,0,0,0-1.45,1.38,3.35,3.35,0,0,0-.45,1.9,2.51,2.51,0,0,0,1.36,1.54,3.81,3.81,0,0,0,3,.24,5.47,5.47,0,0,0,2.34-2.3,5.12,5.12,0,0,0,.55-3.16v-.24A10.57,10.57,0,0,0,412.47,589.93Z"/><path class="cls-4" d="M380.45,496.87a9.72,9.72,0,0,1,1.67.85c1.06.57,2.5,1.47,4.34,2.65q3.15,2.11,6.06,4.51a75.17,75.17,0,0,1,12.56,13.28,66.09,66.09,0,0,1,4.08,6.19c1.07,1.82,1.86,3.32,2.35,4.39a9.74,9.74,0,0,1,.71,1.67,9.45,9.45,0,0,1-.93-1.56c-.57-1-1.41-2.5-2.5-4.28s-2.5-3.86-4.17-6.09a81.41,81.41,0,0,0-12.48-13.11,73.42,73.42,0,0,0-5.88-4.64c-1.68-1.19-3.19-2.18-4.21-2.81A10.76,10.76,0,0,1,380.45,496.87Z"/><path class="cls-7" d="M359.33,629.69h1.06V689.9h-1.06a11.51,11.51,0,0,1-7.94-3.14,10.51,10.51,0,0,1-3.29-7.59v-38.8a10.52,10.52,0,0,1,3.31-7.56A11.49,11.49,0,0,1,359.33,629.69Z"/><path class="cls-7" d="M540.85,629.69H542a11.34,11.34,0,0,1,7.84,3.1,10.34,10.34,0,0,1,3.25,7.48v39.06a10.34,10.34,0,0,1-3.25,7.48,11.34,11.34,0,0,1-7.84,3.1h-1.17Z"/><path class="cls-4" d="M526,617.94H374.8c-9.74,0-17.63,7.53-17.63,16.83v97.45c0,9.3,7.89,16.83,17.63,16.83H526c9.73,0,17.62-7.53,17.62-16.83V634.77C543.61,625.47,535.72,617.94,526,617.94Z"/><path class="cls-6" d="M474.11,631.86a43.77,43.77,0,0,0-30.21,11.95,39.89,39.89,0,0,0-12.51,28.85h85.45a39.31,39.31,0,0,0-3.25-15.61,40.68,40.68,0,0,0-9.27-13.24A42.85,42.85,0,0,0,490.46,635,44.47,44.47,0,0,0,474.11,631.86Z"/><path class="cls-8" d="M508.56,670.69h4.6a10.16,10.16,0,0,1,1.91.12,10.07,10.07,0,0,1-1.9.14H502.06a1.46,1.46,0,0,1,.51,0l1.4-.06Z"/><path class="cls-8" d="M505.55,658.36a35.34,35.34,0,0,1,6-2.39c.09.14-2.49,1.48-5.76,2.88a46.06,46.06,0,0,1-6,2.38A44.29,44.29,0,0,1,505.55,658.36Z"/><path class="cls-8" d="M497.53,648.27c2.37-2.57,4.42-4.55,4.58-4.42s-1.68,2.3-4.1,4.83a42.43,42.43,0,0,1-4.58,4.41A42.63,42.63,0,0,1,497.53,648.27Z"/><path class="cls-8" d="M486.1,641.82a27,27,0,0,1,2.56-5.71c.2.07-.67,2.72-2,6a41.72,41.72,0,0,1-2.57,5.71A40.78,40.78,0,0,1,486.1,641.82Z"/><path class="cls-8" d="M473,639.7c0-3.43.1-6.21.31-6.21s.35,2.78.33,6.21a37.91,37.91,0,0,1-.33,6.21A37.9,37.9,0,0,1,473,639.7Z"/><path class="cls-8" d="M460,642c-1.25-3.21-2.17-5.85-2-6s1.35,2.48,2.5,5.71a37.15,37.15,0,0,1,2,6A40.11,40.11,0,0,1,460,642Z"/><path class="cls-8" d="M448.66,648.68c-2.42-2.53-4.26-4.69-4.1-4.83s2.21,1.85,4.58,4.42a42.13,42.13,0,0,1,4.1,4.77A42,42,0,0,1,448.66,648.68Z"/><path class="cls-8" d="M440.84,658.92c-3.28-1.41-5.87-2.7-5.78-2.89s2.8.86,6,2.39a45.58,45.58,0,0,1,5.77,2.87A44.14,44.14,0,0,1,440.84,658.92Z"/><path class="cls-8" d="M438.12,671h-4.61a9.2,9.2,0,0,1-1.89-.13,8.72,8.72,0,0,1,1.91-.12h4.59l4.59.08,1.4,0a2.09,2.09,0,0,1,.5,0,2.09,2.09,0,0,1-.5,0h-1.4Z"/><path class="cls-6" d="M402.87,639a5.17,5.17,0,0,1-.95,3,5.59,5.59,0,0,1-2.54,2,5.93,5.93,0,0,1-3.28.31,5.64,5.64,0,0,1-2.91-1.48,5.32,5.32,0,0,1-1.56-2.77A5.2,5.2,0,0,1,392,637a5.55,5.55,0,0,1,2.09-2.44,5.91,5.91,0,0,1,3.16-.91,5.85,5.85,0,0,1,4,1.58A5.33,5.33,0,0,1,402.87,639Z"/><path class="cls-14" d="M402.87,655.34a5.17,5.17,0,0,1-.95,3,5.59,5.59,0,0,1-2.54,2,5.93,5.93,0,0,1-3.28.31,5.64,5.64,0,0,1-2.91-1.48,5.32,5.32,0,0,1-1.56-2.77,5.2,5.2,0,0,1,.32-3.14,5.55,5.55,0,0,1,2.09-2.44,5.91,5.91,0,0,1,3.16-.91,5.85,5.85,0,0,1,4,1.58A5.33,5.33,0,0,1,402.87,655.34Z"/><path class="cls-7" d="M510.35,737.74V733.8c0-2.58,0-6.35-.06-11.18,0-9.69-.08-23.66-.13-40.89l.24.23L394.13,682l.32-.31v56l-.31-.28,83.51.13,24.09.08h.14l-24,.08-83.71.15h-.39V681.28h.34l116.27.08h.25v.23c-.06,17.29-.1,31.3-.14,41v14A4.63,4.63,0,0,1,510.35,737.74Z"/><path class="cls-7" d="M376.41,748.79h148v.7a7.12,7.12,0,0,1-.59,2.84,7.51,7.51,0,0,1-1.69,2.41,7.75,7.75,0,0,1-2.52,1.61,8,8,0,0,1-3,.57H384.19a7.91,7.91,0,0,1-5.49-2.18,7.25,7.25,0,0,1-2.28-5.25v-.7Z"/><g class="cls-15"><path d="M497.92,689.59a3.24,3.24,0,0,0,.53,2.2,3.55,3.55,0,0,0,1.88,1.38,4,4,0,0,0,2.36-.1,3.81,3.81,0,0,0,1.87-1.38,4,4,0,0,0,0-4.38,4.09,4.09,0,0,1-1,2.81,3.22,3.22,0,0,1-1.28.86,3.26,3.26,0,0,1-1.55.18,2.52,2.52,0,0,1-1.38-.64,2.38,2.38,0,0,1-.72-1.31"/></g><path class="cls-8" d="M504.58,688.27a3.15,3.15,0,0,1-.57,1.84,3.46,3.46,0,0,1-1.55,1.22,3.69,3.69,0,0,1-2,.19,3.5,3.5,0,0,1-1.78-.91,3.24,3.24,0,0,1-.94-1.69,3.06,3.06,0,0,1,.2-1.91,3.31,3.31,0,0,1,1.27-1.48,3.61,3.61,0,0,1,4.37.41A3.23,3.23,0,0,1,504.58,688.27Z"/><path class="cls-7" d="M504.58,688.27a7.59,7.59,0,0,1-.22-.78,3.34,3.34,0,0,0-1.25-1.67,3.41,3.41,0,0,0-1.46-.55,3.58,3.58,0,0,0-1.56.17,3.18,3.18,0,0,0-1.49,1.11,3,3,0,0,0-.56,1.72,3,3,0,0,0,.56,1.72,3.16,3.16,0,0,0,1.49,1.1,3.31,3.31,0,0,0,1.56.17,3.41,3.41,0,0,0,1.46-.55,3.34,3.34,0,0,0,1.25-1.67,6.77,6.77,0,0,1,.22-.77,1.49,1.49,0,0,1,0,.83,3.21,3.21,0,0,1-1.24,2,3.8,3.8,0,0,1-3.51.57,3.75,3.75,0,0,1-1.79-1.31,3.45,3.45,0,0,1,0-4.11,3.73,3.73,0,0,1,1.79-1.3,3.8,3.8,0,0,1,1.83-.16,3.73,3.73,0,0,1,1.68.73,3.19,3.19,0,0,1,1.24,1.95C504.7,688,504.62,688.27,504.58,688.27Z"/><path class="cls-7" d="M502.73,686.86c.06.17-.75.57-1.51,1.34s-1.17,1.53-1.34,1.47,0-1,.87-1.92S502.69,686.69,502.73,686.86Z"/><path class="cls-7" d="M502.73,689.29c-.15.1-.73-.5-1.58-1s-1.64-.84-1.61-1,1-.13,2,.5S502.87,689.22,502.73,689.29Z"/><g class="cls-15"><path d="M499.53,730.36a3.2,3.2,0,0,0,.55,2.2,3.46,3.46,0,0,0,1.87,1.37,4,4,0,0,0,2.36-.09,3.83,3.83,0,0,0,1.87-1.38,4.06,4.06,0,0,0,.68-2.18,4,4,0,0,0-.62-2.19,3.94,3.94,0,0,1-1,2.79,3.21,3.21,0,0,1-1.27.87,3.36,3.36,0,0,1-1.54.18,2.55,2.55,0,0,1-1.39-.64,2.33,2.33,0,0,1-.73-1.3"/></g><path class="cls-8" d="M502.76,732.31a3.29,3.29,0,1,0-3.44-3.29A3.37,3.37,0,0,0,502.76,732.31Z"/><path class="cls-7" d="M506.21,729c-.07,0-.08-.28-.24-.77a3.29,3.29,0,0,0-1.25-1.67,3.37,3.37,0,0,0-3-.38,3.27,3.27,0,0,0-1.11.7,2.9,2.9,0,0,0-.71,1.09,2.84,2.84,0,0,0-.18,1.26,2.81,2.81,0,0,0,.38,1.22,3,3,0,0,0,.87,1,3.3,3.3,0,0,0,2.55.54,3.14,3.14,0,0,0,1.22-.51A3.24,3.24,0,0,0,506,729.8c.16-.48.17-.78.24-.78s.11.3,0,.84a3.29,3.29,0,0,1-1.25,2,3.84,3.84,0,0,1-3.51.56,3.75,3.75,0,0,1-1.79-1.31,3.45,3.45,0,0,1,0-4.11,3.75,3.75,0,0,1,1.79-1.31,4,4,0,0,1,3.51.57,3.23,3.23,0,0,1,1.25,2C506.32,728.74,506.24,729,506.21,729Z"/><path class="cls-7" d="M504.35,727.62c.06.16-.76.57-1.51,1.33s-1.16,1.54-1.35,1.49,0-1.05.87-1.92S504.31,727.46,504.35,727.62Z"/><path class="cls-7" d="M504.35,730.05c-.17.11-.74-.5-1.59-1s-1.63-.83-1.6-1,1-.13,2,.5S504.5,730,504.35,730.05Z"/><g class="cls-15"><path d="M399.22,689.54a3.25,3.25,0,0,0,.54,2.2,3.55,3.55,0,0,0,1.88,1.38A4.12,4.12,0,0,0,404,693a3.89,3.89,0,0,0,1.87-1.39,4,4,0,0,0,0-4.36,4,4,0,0,1-1,2.8,3.15,3.15,0,0,1-1.26.86,3.36,3.36,0,0,1-1.54.19,2.56,2.56,0,0,1-1.4-.65,2.34,2.34,0,0,1-.72-1.31"/></g><path class="cls-8" d="M402.44,691.51a3.29,3.29,0,1,0-3.45-3.29A3.37,3.37,0,0,0,402.44,691.51Z"/><path class="cls-7" d="M405.89,688.22s-.07-.3-.23-.77a3.26,3.26,0,0,0-2.7-2.22,3.31,3.31,0,0,0-1.56.17,3.16,3.16,0,0,0-1.49,1.1,2.92,2.92,0,0,0,0,3.44,3.25,3.25,0,0,0,1.49,1.11,3.45,3.45,0,0,0,1.56.16,3.29,3.29,0,0,0,1.46-.55,3.16,3.16,0,0,0,1.25-1.66c.16-.48.17-.78.24-.78a1.47,1.47,0,0,1,0,.83,3.27,3.27,0,0,1-1.25,2,3.76,3.76,0,0,1-5.3-.74,3.47,3.47,0,0,1,0-4.1,3.77,3.77,0,0,1,5.3-.74,3.27,3.27,0,0,1,1.25,2A1.38,1.38,0,0,1,405.89,688.22Z"/><path class="cls-7" d="M404,686.81c0,.17-.77.58-1.51,1.34s-1.17,1.54-1.35,1.48,0-1,.87-1.92A2.53,2.53,0,0,1,404,686.81Z"/><path class="cls-7" d="M404,689.24c-.17.1-.74-.5-1.59-1s-1.63-.84-1.6-1,1-.13,2,.49S404.19,689.16,404,689.24Z"/><g class="cls-15"><path d="M398.49,730a3.29,3.29,0,0,0,.54,2.21,3.51,3.51,0,0,0,1.87,1.37,4.07,4.07,0,0,0,2.37-.09,3.87,3.87,0,0,0,1.86-1.39,3.93,3.93,0,0,0,0-4.36,4,4,0,0,1-1,2.79,3.32,3.32,0,0,1-1.27.87,3.39,3.39,0,0,1-1.55.19,2.57,2.57,0,0,1-1.39-.65,2.34,2.34,0,0,1-.72-1.31"/></g><path class="cls-8" d="M401.71,731.91a3.29,3.29,0,1,0-3.44-3.29A3.37,3.37,0,0,0,401.71,731.91Z"/><path class="cls-7" d="M405.16,728.62a2.06,2.06,0,0,0-.23-.78,3.46,3.46,0,0,0-1.24-1.67,3.36,3.36,0,0,0-1.46-.54,3.42,3.42,0,0,0-1.56.16,3.29,3.29,0,0,0-1.12.71,3.12,3.12,0,0,0-.71,1.08,3,3,0,0,0-.18,1.26,3.15,3.15,0,0,0,.38,1.23,3.22,3.22,0,0,0,.88,1,3.31,3.31,0,0,0,1.21.54,3.5,3.5,0,0,0,1.33,0,3.36,3.36,0,0,0,1.23-.52,3.27,3.27,0,0,0,1.24-1.67,6.82,6.82,0,0,1,.23-.77,1.64,1.64,0,0,1,0,.83,3.25,3.25,0,0,1-1.25,2,3.76,3.76,0,0,1-1.68.71,3.92,3.92,0,0,1-1.83-.14,3.76,3.76,0,0,1-1.8-1.31,3.48,3.48,0,0,1-.68-2.06,3.53,3.53,0,0,1,.68-2.06,3.74,3.74,0,0,1,1.8-1.3,3.92,3.92,0,0,1,1.83-.14,3.76,3.76,0,0,1,1.68.71,3.25,3.25,0,0,1,1.25,2C405.27,728.33,405.2,728.63,405.16,728.62Z"/><path class="cls-7" d="M403.3,727.22c0,.17-.75.58-1.51,1.34s-1.16,1.54-1.34,1.49,0-1,.88-1.92S403.26,727.06,403.3,727.22Z"/><path class="cls-7" d="M403.3,729.61c-.15.09-.72-.52-1.57-1.05s-1.65-.84-1.61-1,1-.14,2,.5S403.45,729.61,403.3,729.61Z"/><g class="cls-15"><path d="M394.06,738.05c13.51,2.8,29.28,2.91,43.87,2.23,7-.34,14.71-.75,20.33,3.29,1.25.88,2.67,2,4.12,1.52,2.09-.75,2.17-4.42,4.42-4.49a2.74,2.74,0,0,1,2.34,2,15,15,0,0,0,1,3c.58.93,1.94,1.55,2.84.9,1.42-1-.23-3.27.31-4.9s3.08-1.83,4.8-1.19,3.4,1.83,5.23,1.57a10.43,10.43,0,0,0,3.54-1.73c3.28-1.92,7.33-2,11.23-2.1s8.23-.43,12.29-.5Z"/></g><path class="cls-7" d="M487.06,696a2.34,2.34,0,0,1-.63.21,15.94,15.94,0,0,0-1.81.59,27.53,27.53,0,0,0-6.09,3.29c-2.44,1.62-5.12,3.86-8.53,5.84a19.75,19.75,0,0,1-5.78,2.3,33.73,33.73,0,0,1-6.66.48c-4.55,0-8.54,1.76-12,3.57s-6.6,3.39-9.06,5a32.87,32.87,0,0,0-5.42,4.25c-1.16,1.19-1.69,1.85-1.74,1.81s.1-.19.35-.54a16.83,16.83,0,0,1,1.24-1.44,29.66,29.66,0,0,1,5.35-4.43,95.43,95.43,0,0,1,9-5.13,42.41,42.41,0,0,1,5.64-2.5,20,20,0,0,1,6.6-1.13,35.14,35.14,0,0,0,6.56-.46,20.4,20.4,0,0,0,5.61-2.19c3.35-1.92,6.08-4.13,8.56-5.71a26.16,26.16,0,0,1,6.24-3.16,12.1,12.1,0,0,1,1.86-.48A3,3,0,0,1,487.06,696Z"/><path class="cls-7" d="M457.47,705.42a17.12,17.12,0,0,1-3.62-.54,56,56,0,0,1-8.44-2.5,53.21,53.21,0,0,1-7.92-3.77,15.27,15.27,0,0,1-3-2,32.55,32.55,0,0,1,3.23,1.63,77,77,0,0,0,16.22,6.24A26.63,26.63,0,0,1,457.47,705.42Z"/><path class="cls-4" d="M476.24,666.51c1-.49,29-9.11,29-9.11l-26.81,14.31Z"/><path class="cls-7" d="M473.32,663.62a10,10,0,0,0-3.63.68,9.61,9.61,0,0,0-3.07,2,9.1,9.1,0,0,0-2.06,2.94,8.65,8.65,0,0,0-.72,3.46h19a8.83,8.83,0,0,0-.72-3.46,9.1,9.1,0,0,0-2.06-2.94,9.66,9.66,0,0,0-3.08-2A10,10,0,0,0,473.32,663.62Z"/><path class="cls-7" d="M378,748.79c-.19,0-.33-29.11-.33-65s.14-65,.33-65,.32,29.11.32,65S378.14,748.79,378,748.79Z"/><path class="cls-7" d="M526.29,748.79c-.19,0-.33-29.11-.33-65s.14-65,.33-65,.32,29.11.32,65S526.46,748.79,526.29,748.79Z"/><path class="cls-7" d="M371.74,636.39a1.4,1.4,0,1,0,0-2.79,1.4,1.4,0,1,0,0,2.79Z"/><path class="cls-7" d="M371.74,662.47a1.4,1.4,0,1,0-1.46-1.39A1.43,1.43,0,0,0,371.74,662.47Z"/><path class="cls-7" d="M371.74,688.56a1.39,1.39,0,1,0-1.46-1.39A1.43,1.43,0,0,0,371.74,688.56Z"/><path class="cls-7" d="M371.74,714.66a1.4,1.4,0,1,0-1.46-1.39A1.43,1.43,0,0,0,371.74,714.66Z"/><path class="cls-7" d="M371.74,740.74a1.4,1.4,0,1,0-1.46-1.39A1.43,1.43,0,0,0,371.74,740.74Z"/><path class="cls-7" d="M533.91,636.39a1.4,1.4,0,1,0-1.46-1.4A1.43,1.43,0,0,0,533.91,636.39Z"/><path class="cls-7" d="M533.91,662.47a1.4,1.4,0,1,0,0-2.79,1.4,1.4,0,1,0,0,2.79Z"/><path class="cls-7" d="M533.91,688.56a1.39,1.39,0,1,0-1.46-1.39A1.42,1.42,0,0,0,533.91,688.56Z"/><path class="cls-7" d="M533.91,714.66a1.4,1.4,0,1,0,0-2.79,1.4,1.4,0,1,0,0,2.79Z"/><path class="cls-7" d="M533.91,740.74a1.4,1.4,0,1,0,0-2.79,1.4,1.4,0,1,0,0,2.79Z"/><path class="cls-14" d="M477.87,603.57H414.09v14.35h63.78Z"/><path class="cls-7" d="M418.71,617.94a75.31,75.31,0,0,1,0-13.87,73,73,0,0,1,0,13.87Z"/><path class="cls-7" d="M425.24,617.94a73,73,0,0,1,0-13.87,75.31,75.31,0,0,1,0,13.87Z"/><path class="cls-7" d="M431.79,617.94a75.31,75.31,0,0,1,0-13.87,75.31,75.31,0,0,1,0,13.87Z"/><path class="cls-7" d="M438.34,617.94a75.31,75.31,0,0,1,0-13.87,73,73,0,0,1,0,13.87Z"/><path class="cls-7" d="M444.92,617.94a73,73,0,0,1,0-13.87,75.31,75.31,0,0,1,0,13.87Z"/><path class="cls-7" d="M451.43,617.94a75.31,75.31,0,0,1,0-13.87,73,73,0,0,1,0,13.87Z"/><path class="cls-7" d="M458,617.94a75.31,75.31,0,0,1,0-13.87,73,73,0,0,1,0,13.87Z"/><path class="cls-7" d="M464.52,617.94a75.31,75.31,0,0,1,0-13.87,73,73,0,0,1,0,13.87Z"/><path class="cls-7" d="M471.13,617.94a73,73,0,0,1,0-13.87,75.31,75.31,0,0,1,0,13.87Z"/><g class="cls-15"><path d="M553.09,649.05c1.55,7.46,3,14.49,4.52,22a37.87,37.87,0,0,1-4.52,0v-22"/></g><path class="cls-6" d="M361.49,631.92c.18,0,0,22.27-.43,49.72s-.89,49.71-1.08,49.71,0-22.26.43-49.72S361.3,631.92,361.49,631.92Z"/><path class="cls-6" d="M388.62,734.38c-.18,0-.32-11.09-.32-24.76s.14-24.76.32-24.76.33,11.08.33,24.76S388.76,734.38,388.62,734.38Z"/><path class="cls-6" d="M511.19,621.94c0,.18-28.62.31-63.9.31s-63.9-.13-63.9-.31,28.61-.31,63.9-.31S511.19,621.77,511.19,621.94Z"/><path class="cls-10" d="M724.7,302.89a23.94,23.94,0,0,1,2.51-6.09l-3.48-5.07,7.31-7.22,5.42,3.15a26.22,26.22,0,0,1,6.29-2.59l1.3-5.94,10.5-.17,1.51,5.9a26.77,26.77,0,0,1,6.37,2.4l5.31-3.32,7.54,7L772,296.09a24,24,0,0,1,2.72,6l6.22,1.25.16,10-6.16,1.43a23.87,23.87,0,0,1-2.51,6.08l3.48,5.08-7.31,7.21L763.17,330a26.69,26.69,0,0,1-6.29,2.61l-1.25,6-10.44.17-1.51-5.9a26,26,0,0,1-6.37-2.4L732,333.76l-7.54-7,3.3-5.19a23.48,23.48,0,0,1-2.73-6l-6.21-1.24-.17-10,6.16-1.43Zm13.85,5.68a10.45,10.45,0,0,0,2,5.95,11.19,11.19,0,0,0,5.12,3.88,11.79,11.79,0,0,0,6.52.51,11.41,11.41,0,0,0,5.72-3,10.63,10.63,0,0,0,3-5.56,10.3,10.3,0,0,0-.75-6.21,10.93,10.93,0,0,0-4.23-4.76,11.73,11.73,0,0,0-6.29-1.72,11.93,11.93,0,0,0-4.3.89,11.19,11.19,0,0,0-3.62,2.39,10.53,10.53,0,0,0-2.38,3.53A10.28,10.28,0,0,0,738.55,308.57Z"/></g></svg>