<svg width="15" height="15" viewBox="0 0 15 15" fill="none" xmlns="http://www.w3.org/2000/svg">
<path d="M13.7292 2.525H10.0375V1.73396C10.0375 1.2741 9.6634 0.9 9.20354 0.9H5.79646C5.3366 0.9 4.9625 1.2741 4.9625 1.73396V2.525H1.27083C1.0661 2.525 0.9 2.6911 0.9 2.89583C0.9 3.10056 1.0661 3.26667 1.27083 3.26667H2.79583V12.9291C2.79583 13.5748 3.32106 14.1 3.96671 14.1H11.0338C11.6795 14.1 12.2047 13.5748 12.2047 12.9291V3.26667H13.7297C13.934 3.26667 14.1 3.10043 14.1 2.89583C14.1 2.69111 13.9339 2.525 13.7292 2.525ZM5.70417 1.73396C5.70417 1.68356 5.74606 1.64167 5.79646 1.64167H9.203C9.25412 1.64167 9.29583 1.68374 9.29583 1.73396V2.525H5.70417V1.73396ZM11.4625 12.9291C11.4625 13.1659 11.27 13.3583 11.0333 13.3583H3.96671C3.72998 13.3583 3.5375 13.1659 3.5375 12.9291V3.26667H11.4625V12.9291Z" fill="#009247" stroke="#009247" stroke-width="0.2"/>
<path d="M5.33333 11.9327C5.53806 11.9327 5.70417 11.7666 5.70417 11.5618V5.06185C5.70417 4.85712 5.53806 4.69102 5.33333 4.69102C5.1286 4.69102 4.9625 4.85712 4.9625 5.06185V11.5618C4.9625 11.7666 5.1286 11.9327 5.33333 11.9327Z" fill="#009247" stroke="#009247" stroke-width="0.2"/>
<path d="M7.49984 11.9327C7.70457 11.9327 7.87067 11.7666 7.87067 11.5618V5.06185C7.87067 4.85712 7.70457 4.69102 7.49984 4.69102C7.29511 4.69102 7.129 4.85712 7.129 5.06185V11.5618C7.129 11.7666 7.29511 11.9327 7.49984 11.9327Z" fill="#009247" stroke="#009247" stroke-width="0.2"/>
<path d="M9.66683 11.9327C9.87156 11.9327 10.0377 11.7666 10.0377 11.5618V5.06185C10.0377 4.85712 9.87156 4.69102 9.66683 4.69102C9.4621 4.69102 9.296 4.85712 9.296 5.06185V11.5618C9.296 11.7666 9.4621 11.9327 9.66683 11.9327Z" fill="#009247" stroke="#009247" stroke-width="0.2"/>
</svg>
