<svg width="13" height="16" viewBox="0 0 13 16" fill="none" xmlns="http://www.w3.org/2000/svg">
<path d="M6.5 16C5.60304 15.9957 4.87575 15.2831 4.86688 14.4H8.11687C8.11859 14.6139 8.07717 14.826 7.995 15.024C7.78185 15.5056 7.34647 15.8569 6.825 15.968H6.82094H6.80875H6.79413H6.78681C6.69241 15.9874 6.5964 15.9981 6.5 16ZM13 13.6H0V12L1.625 11.2V6.8C1.5822 5.67129 1.84107 4.5513 2.37575 3.552C2.90797 2.62521 3.81769 1.9671 4.875 1.744V0H8.125V1.744C10.2204 2.2352 11.375 4.0304 11.375 6.8V11.2L13 12V13.6Z" fill="#2F313F"/>
</svg>
