<svg width="23" height="25" viewBox="0 0 23 25" fill="none" xmlns="http://www.w3.org/2000/svg">
<path fill-rule="evenodd" clip-rule="evenodd" d="M17.625 2.91667H18.5C19.4283 2.91667 20.3185 3.32053 20.9749 4.03942C21.6312 4.75831 22 5.73334 22 6.75V20.1667C22 21.1833 21.6312 22.1584 20.9749 22.8772C20.3185 23.5961 19.4283 24 18.5 24H4.5C3.57174 24 2.6815 23.5961 2.02513 22.8772C1.36875 22.1584 1 21.1833 1 20.1667V6.75C1 5.73334 1.36875 4.75831 2.02513 4.03942C2.6815 3.32053 3.57174 2.91667 4.5 2.91667H5.375V1.95833C5.375 1.70417 5.46719 1.46041 5.63128 1.28069C5.79538 1.10097 6.01794 1 6.25 1C6.48206 1 6.70462 1.10097 6.86872 1.28069C7.03281 1.46041 7.125 1.70417 7.125 1.95833V2.91667H15.875V1.95833C15.875 1.70417 15.9672 1.46041 16.1313 1.28069C16.2954 1.10097 16.5179 1 16.75 1C16.9821 1 17.2046 1.10097 17.3687 1.28069C17.5328 1.46041 17.625 1.70417 17.625 1.95833V2.91667ZM19.7374 21.522C20.0656 21.1625 20.25 20.675 20.25 20.1667V6.75C20.25 6.24167 20.0656 5.75416 19.7374 5.39471C19.4092 5.03527 18.9641 4.83333 18.5 4.83333H17.625V5.79167C17.625 6.04583 17.5328 6.28959 17.3687 6.46931C17.2046 6.64903 16.9821 6.75 16.75 6.75C16.5179 6.75 16.2954 6.64903 16.1313 6.46931C15.9672 6.28959 15.875 6.04583 15.875 5.79167V4.83333H7.125V5.79167C7.125 6.04583 7.03281 6.28959 6.86872 6.46931C6.70462 6.64903 6.48206 6.75 6.25 6.75C6.01794 6.75 5.79538 6.64903 5.63128 6.46931C5.46719 6.28959 5.375 6.04583 5.375 5.79167V4.83333H4.5C4.03587 4.83333 3.59075 5.03527 3.26256 5.39471C2.93437 5.75416 2.75 6.24167 2.75 6.75V20.1667C2.75 20.675 2.93437 21.1625 3.26256 21.522C3.59075 21.8814 4.03587 22.0833 4.5 22.0833H18.5C18.9641 22.0833 19.4092 21.8814 19.7374 21.522ZM5.37568 7.71094H17.6257C17.8577 7.71094 18.0803 7.8119 18.2444 7.99163C18.4085 8.17135 18.5007 8.4151 18.5007 8.66927C18.5007 8.92344 18.4085 9.16719 18.2444 9.34691C18.0803 9.52664 17.8577 9.6276 17.6257 9.6276H5.37568C5.14362 9.6276 4.92106 9.52664 4.75697 9.34691C4.59287 9.16719 4.50068 8.92344 4.50068 8.66927C4.50068 8.4151 4.59287 8.17135 4.75697 7.99163C4.92106 7.8119 5.14362 7.71094 5.37568 7.71094ZM7.12568 12.5H5.37568C5.14362 12.5 4.92106 12.601 4.75697 12.7807C4.59287 12.9604 4.50068 13.2042 4.50068 13.4583C4.50068 13.7125 4.59287 13.9563 4.75697 14.136C4.92106 14.3157 5.14362 14.4167 5.37568 14.4167H7.12568C7.35775 14.4167 7.58031 14.3157 7.7444 14.136C7.9085 13.9563 8.00068 13.7125 8.00068 13.4583C8.00068 13.2042 7.9085 12.9604 7.7444 12.7807C7.58031 12.601 7.35775 12.5 7.12568 12.5ZM5.37568 17.2891H7.12568C7.35775 17.2891 7.58031 17.39 7.7444 17.5698C7.9085 17.7495 8.00068 17.9932 8.00068 18.2474C8.00068 18.5016 7.9085 18.7453 7.7444 18.925C7.58031 19.1048 7.35775 19.2057 7.12568 19.2057H5.37568C5.14362 19.2057 4.92106 19.1048 4.75697 18.925C4.59287 18.7453 4.50068 18.5016 4.50068 18.2474C4.50068 17.9932 4.59287 17.7495 4.75697 17.5698C4.92106 17.39 5.14362 17.2891 5.37568 17.2891ZM12.3757 12.5H10.6257C10.3936 12.5 10.1711 12.601 10.007 12.7807C9.84287 12.9604 9.75068 13.2042 9.75068 13.4583C9.75068 13.7125 9.84287 13.9563 10.007 14.136C10.1711 14.3157 10.3936 14.4167 10.6257 14.4167H12.3757C12.6077 14.4167 12.8303 14.3157 12.9944 14.136C13.1585 13.9563 13.2507 13.7125 13.2507 13.4583C13.2507 13.2042 13.1585 12.9604 12.9944 12.7807C12.8303 12.601 12.6077 12.5 12.3757 12.5ZM10.6257 17.2891H12.3757C12.6077 17.2891 12.8303 17.39 12.9944 17.5698C13.1585 17.7495 13.2507 17.9932 13.2507 18.2474C13.2507 18.5016 13.1585 18.7453 12.9944 18.925C12.8303 19.1048 12.6077 19.2057 12.3757 19.2057H10.6257C10.3936 19.2057 10.1711 19.1048 10.007 18.925C9.84287 18.7453 9.75068 18.5016 9.75068 18.2474C9.75068 17.9932 9.84287 17.7495 10.007 17.5698C10.1711 17.39 10.3936 17.2891 10.6257 17.2891ZM17.6257 12.5H15.8757C15.6436 12.5 15.4211 12.601 15.257 12.7807C15.0929 12.9604 15.0007 13.2042 15.0007 13.4583C15.0007 13.7125 15.0929 13.9563 15.257 14.136C15.4211 14.3157 15.6436 14.4167 15.8757 14.4167H17.6257C17.8577 14.4167 18.0803 14.3157 18.2444 14.136C18.4085 13.9563 18.5007 13.7125 18.5007 13.4583C18.5007 13.2042 18.4085 12.9604 18.2444 12.7807C18.0803 12.601 17.8577 12.5 17.6257 12.5ZM15.8757 17.2891H17.6257C17.8577 17.2891 18.0803 17.39 18.2444 17.5698C18.4085 17.7495 18.5007 17.9932 18.5007 18.2474C18.5007 18.5016 18.4085 18.7453 18.2444 18.925C18.0803 19.1048 17.8577 19.2057 17.6257 19.2057H15.8757C15.6436 19.2057 15.4211 19.1048 15.257 18.925C15.0929 18.7453 15.0007 18.5016 15.0007 18.2474C15.0007 17.9932 15.0929 17.7495 15.257 17.5698C15.4211 17.39 15.6436 17.2891 15.8757 17.2891Z" fill="white"/>
<path d="M17.625 2.91667H17.425V3.11667H17.625V2.91667ZM20.9749 4.03942L20.8272 4.17428V4.17428L20.9749 4.03942ZM20.9749 22.8772L20.8272 22.7424L20.9749 22.8772ZM2.02513 22.8772L1.87743 23.0121L2.02513 22.8772ZM2.02513 4.03942L1.87743 3.90457L2.02513 4.03942ZM5.375 2.91667V3.11667H5.575V2.91667H5.375ZM5.63128 1.28069L5.48358 1.14584L5.48358 1.14584L5.63128 1.28069ZM6.86872 1.28069L6.72102 1.41554L6.72102 1.41554L6.86872 1.28069ZM7.125 2.91667H6.925V3.11667H7.125V2.91667ZM15.875 2.91667V3.11667H16.075V2.91667H15.875ZM16.1313 1.28069L15.9836 1.14584L15.9836 1.14584L16.1313 1.28069ZM17.3687 1.28069L17.5164 1.14584V1.14584L17.3687 1.28069ZM19.7374 21.522L19.5897 21.3871V21.3871L19.7374 21.522ZM19.7374 5.39471L19.5897 5.52957V5.52957L19.7374 5.39471ZM17.625 4.83333V4.63333H17.425V4.83333H17.625ZM17.3687 6.46931L17.5164 6.60416V6.60416L17.3687 6.46931ZM16.1313 6.46931L15.9836 6.60416L15.9836 6.60416L16.1313 6.46931ZM15.875 4.83333H16.075V4.63333H15.875V4.83333ZM7.125 4.83333V4.63333H6.925V4.83333H7.125ZM6.86872 6.46931L6.72102 6.33446H6.72102L6.86872 6.46931ZM5.63128 6.46931L5.48358 6.60416H5.48358L5.63128 6.46931ZM5.375 4.83333H5.575V4.63333H5.375V4.83333ZM3.26256 5.39471L3.41026 5.52957H3.41026L3.26256 5.39471ZM2.75 6.75H2.95H2.75ZM3.26256 21.522L3.41026 21.3871H3.41026L3.26256 21.522ZM18.2444 7.99163L18.0967 8.12648V8.12648L18.2444 7.99163ZM18.2444 9.34691L18.0967 9.21206V9.21206L18.2444 9.34691ZM4.75697 9.34691L4.90466 9.21206L4.90466 9.21206L4.75697 9.34691ZM4.75697 7.99163L4.90466 8.12648L4.75697 7.99163ZM4.75697 12.7807L4.60927 12.6458L4.60927 12.6458L4.75697 12.7807ZM4.75697 14.136L4.90466 14.0011L4.90466 14.0011L4.75697 14.136ZM7.7444 14.136L7.5967 14.0011L7.5967 14.0011L7.7444 14.136ZM7.7444 12.7807L7.8921 12.6458L7.8921 12.6458L7.7444 12.7807ZM7.7444 17.5698L7.5967 17.7046H7.5967L7.7444 17.5698ZM7.7444 18.925L7.8921 19.0599H7.8921L7.7444 18.925ZM4.75697 18.925L4.60927 19.0599H4.60927L4.75697 18.925ZM4.75697 17.5698L4.90466 17.7046H4.90466L4.75697 17.5698ZM10.007 12.7807L9.85927 12.6458V12.6458L10.007 12.7807ZM10.007 14.136L10.1547 14.0011V14.0011L10.007 14.136ZM12.9944 14.136L12.8467 14.0011V14.0011L12.9944 14.136ZM12.9944 12.7807L13.1421 12.6458V12.6458L12.9944 12.7807ZM12.9944 17.5698L12.8467 17.7046L12.9944 17.5698ZM12.9944 18.925L13.1421 19.0599L12.9944 18.925ZM10.007 18.925L9.85927 19.0599L10.007 18.925ZM10.007 17.5698L10.1547 17.7046L10.007 17.5698ZM15.257 12.7807L15.1093 12.6458V12.6458L15.257 12.7807ZM15.257 14.136L15.4047 14.0011V14.0011L15.257 14.136ZM18.2444 14.136L18.3921 14.2708V14.2708L18.2444 14.136ZM18.2444 12.7807L18.3921 12.6458V12.6458L18.2444 12.7807ZM18.2444 17.5698L18.3921 17.4349L18.2444 17.5698ZM18.2444 18.925L18.3921 19.0599V19.0599L18.2444 18.925ZM15.257 18.925L15.1093 19.0599L15.257 18.925ZM15.257 17.5698L15.4047 17.7046L15.257 17.5698ZM18.5 2.71667H17.625V3.11667H18.5V2.71667ZM21.1226 3.90457C20.4304 3.14646 19.4875 2.71667 18.5 2.71667V3.11667C19.369 3.11667 20.2066 3.49461 20.8272 4.17428L21.1226 3.90457ZM22.2 6.75C22.2 5.68587 21.8142 4.66207 21.1226 3.90457L20.8272 4.17428C21.4483 4.85456 21.8 5.78081 21.8 6.75H22.2ZM22.2 20.1667V6.75H21.8V20.1667H22.2ZM21.1226 23.0121C21.8142 22.2546 22.2 21.2308 22.2 20.1667H21.8C21.8 21.1359 21.4483 22.0621 20.8272 22.7424L21.1226 23.0121ZM18.5 24.2C19.4875 24.2 20.4304 23.7702 21.1226 23.0121L20.8272 22.7424C20.2066 23.4221 19.369 23.8 18.5 23.8V24.2ZM4.5 24.2H18.5V23.8H4.5V24.2ZM1.87743 23.0121C2.56961 23.7702 3.51252 24.2 4.5 24.2V23.8C3.63096 23.8 2.79339 23.4221 2.17282 22.7424L1.87743 23.0121ZM0.8 20.1667C0.8 21.2308 1.1858 22.2546 1.87743 23.0121L2.17282 22.7424C1.5517 22.0621 1.2 21.1359 1.2 20.1667H0.8ZM0.8 6.75V20.1667H1.2V6.75H0.8ZM1.87743 3.90457C1.1858 4.66207 0.8 5.68587 0.8 6.75H1.2C1.2 5.78081 1.5517 4.85456 2.17282 4.17428L1.87743 3.90457ZM4.5 2.71667C3.51252 2.71667 2.56961 3.14646 1.87743 3.90457L2.17282 4.17428C2.79339 3.49461 3.63096 3.11667 4.5 3.11667V2.71667ZM5.375 2.71667H4.5V3.11667H5.375V2.71667ZM5.175 1.95833V2.91667H5.575V1.95833H5.175ZM5.48358 1.14584C5.28424 1.36417 5.175 1.6567 5.175 1.95833H5.575C5.575 1.75164 5.65014 1.55665 5.77898 1.41554L5.48358 1.14584ZM6.25 0.8C5.95872 0.8 5.68349 0.926895 5.48358 1.14584L5.77898 1.41554C5.90726 1.27504 6.07715 1.2 6.25 1.2V0.8ZM7.01642 1.14584C6.81651 0.926895 6.54128 0.8 6.25 0.8V1.2C6.42285 1.2 6.59273 1.27504 6.72102 1.41554L7.01642 1.14584ZM7.325 1.95833C7.325 1.6567 7.21576 1.36417 7.01641 1.14584L6.72102 1.41554C6.84986 1.55665 6.925 1.75164 6.925 1.95833H7.325ZM7.325 2.91667V1.95833H6.925V2.91667H7.325ZM15.875 2.71667H7.125V3.11667H15.875V2.71667ZM15.675 1.95833V2.91667H16.075V1.95833H15.675ZM15.9836 1.14584C15.7842 1.36417 15.675 1.6567 15.675 1.95833H16.075C16.075 1.75164 16.1501 1.55665 16.279 1.41554L15.9836 1.14584ZM16.75 0.8C16.4587 0.8 16.1835 0.926895 15.9836 1.14584L16.279 1.41554C16.4073 1.27504 16.5772 1.2 16.75 1.2V0.8ZM17.5164 1.14584C17.3165 0.926895 17.0413 0.8 16.75 0.8V1.2C16.9228 1.2 17.0927 1.27504 17.221 1.41554L17.5164 1.14584ZM17.825 1.95833C17.825 1.6567 17.7158 1.36417 17.5164 1.14584L17.221 1.41554C17.3499 1.55665 17.425 1.75164 17.425 1.95833H17.825ZM17.825 2.91667V1.95833H17.425V2.91667H17.825ZM20.05 20.1667C20.05 20.6275 19.8827 21.0663 19.5897 21.3871L19.8851 21.6568C20.2486 21.2588 20.45 20.7225 20.45 20.1667H20.05ZM20.05 6.75V20.1667H20.45V6.75H20.05ZM19.5897 5.52957C19.8827 5.8504 20.05 6.28914 20.05 6.75H20.45C20.45 6.1942 20.2486 5.65791 19.8851 5.25986L19.5897 5.52957ZM18.5 5.03333C18.9049 5.03333 19.2974 5.20934 19.5897 5.52957L19.8851 5.25986C19.5211 4.86119 19.0233 4.63333 18.5 4.63333V5.03333ZM17.625 5.03333H18.5V4.63333H17.625V5.03333ZM17.825 5.79167V4.83333H17.425V5.79167H17.825ZM17.5164 6.60416C17.7158 6.38583 17.825 6.0933 17.825 5.79167H17.425C17.425 5.99836 17.3499 6.19335 17.221 6.33446L17.5164 6.60416ZM16.75 6.95C17.0413 6.95 17.3165 6.8231 17.5164 6.60416L17.221 6.33446C17.0927 6.47496 16.9228 6.55 16.75 6.55V6.95ZM15.9836 6.60416C16.1835 6.8231 16.4587 6.95 16.75 6.95V6.55C16.5772 6.55 16.4073 6.47496 16.279 6.33446L15.9836 6.60416ZM15.675 5.79167C15.675 6.0933 15.7842 6.38583 15.9836 6.60416L16.279 6.33446C16.1501 6.19335 16.075 5.99836 16.075 5.79167H15.675ZM15.675 4.83333V5.79167H16.075V4.83333H15.675ZM7.125 5.03333H15.875V4.63333H7.125V5.03333ZM7.325 5.79167V4.83333H6.925V5.79167H7.325ZM7.01641 6.60416C7.21576 6.38583 7.325 6.0933 7.325 5.79167H6.925C6.925 5.99836 6.84986 6.19334 6.72102 6.33446L7.01641 6.60416ZM6.25 6.95C6.54128 6.95 6.81651 6.8231 7.01642 6.60416L6.72102 6.33446C6.59273 6.47496 6.42285 6.55 6.25 6.55V6.95ZM5.48358 6.60416C5.68349 6.8231 5.95872 6.95 6.25 6.95V6.55C6.07715 6.55 5.90727 6.47496 5.77898 6.33446L5.48358 6.60416ZM5.175 5.79167C5.175 6.0933 5.28424 6.38583 5.48358 6.60416L5.77898 6.33446C5.65014 6.19335 5.575 5.99836 5.575 5.79167H5.175ZM5.175 4.83333V5.79167H5.575V4.83333H5.175ZM4.5 5.03333H5.375V4.63333H4.5V5.03333ZM3.41026 5.52957C3.70264 5.20934 4.09509 5.03333 4.5 5.03333V4.63333C3.97665 4.63333 3.47886 4.86119 3.11487 5.25986L3.41026 5.52957ZM2.95 6.75C2.95 6.28914 3.11732 5.8504 3.41026 5.52957L3.11487 5.25986C2.75142 5.65791 2.55 6.1942 2.55 6.75H2.95ZM2.95 20.1667V6.75H2.55V20.1667H2.95ZM3.41026 21.3871C3.11733 21.0663 2.95 20.6275 2.95 20.1667H2.55C2.55 20.7225 2.75142 21.2588 3.11487 21.6568L3.41026 21.3871ZM4.5 21.8833C4.09509 21.8833 3.70264 21.7073 3.41026 21.3871L3.11487 21.6568C3.47886 22.0555 3.97665 22.2833 4.5 22.2833V21.8833ZM18.5 21.8833H4.5V22.2833H18.5V21.8833ZM19.5897 21.3871C19.2974 21.7073 18.9049 21.8833 18.5 21.8833V22.2833C19.0233 22.2833 19.5211 22.0555 19.8851 21.6568L19.5897 21.3871ZM17.6257 7.51094H5.37568V7.91094H17.6257V7.51094ZM18.3921 7.85677C18.1922 7.63783 17.917 7.51094 17.6257 7.51094V7.91094C17.7985 7.91094 17.9684 7.98598 18.0967 8.12648L18.3921 7.85677ZM18.7007 8.66927C18.7007 8.36764 18.5914 8.07511 18.3921 7.85677L18.0967 8.12648C18.2255 8.26759 18.3007 8.46257 18.3007 8.66927H18.7007ZM18.3921 9.48177C18.5914 9.26344 18.7007 8.9709 18.7007 8.66927H18.3007C18.3007 8.87597 18.2255 9.07095 18.0967 9.21206L18.3921 9.48177ZM17.6257 9.8276C17.917 9.8276 18.1922 9.70071 18.3921 9.48177L18.0967 9.21206C17.9684 9.35256 17.7985 9.4276 17.6257 9.4276V9.8276ZM5.37568 9.8276H17.6257V9.4276H5.37568V9.8276ZM4.60927 9.48177C4.80917 9.70071 5.0844 9.8276 5.37568 9.8276V9.4276C5.20284 9.4276 5.03295 9.35256 4.90466 9.21206L4.60927 9.48177ZM4.30068 8.66927C4.30068 8.9709 4.40992 9.26344 4.60927 9.48177L4.90466 9.21206C4.77582 9.07095 4.70068 8.87597 4.70068 8.66927H4.30068ZM4.60927 7.85677C4.40992 8.07511 4.30068 8.36764 4.30068 8.66927H4.70068C4.70068 8.46257 4.77582 8.26759 4.90466 8.12648L4.60927 7.85677ZM5.37568 7.51094C5.0844 7.51094 4.80917 7.63783 4.60927 7.85677L4.90466 8.12648C5.03295 7.98598 5.20284 7.91094 5.37568 7.91094V7.51094ZM5.37568 12.7H7.12568V12.3H5.37568V12.7ZM4.90466 12.9155C5.03295 12.775 5.20284 12.7 5.37568 12.7V12.3C5.0844 12.3 4.80917 12.4269 4.60927 12.6458L4.90466 12.9155ZM4.70068 13.4583C4.70068 13.2516 4.77582 13.0567 4.90466 12.9155L4.60927 12.6458C4.40992 12.8642 4.30068 13.1567 4.30068 13.4583H4.70068ZM4.90466 14.0011C4.77582 13.86 4.70068 13.665 4.70068 13.4583H4.30068C4.30068 13.76 4.40992 14.0525 4.60927 14.2708L4.90466 14.0011ZM5.37568 14.2167C5.20284 14.2167 5.03295 14.1416 4.90466 14.0011L4.60927 14.2708C4.80917 14.4898 5.0844 14.6167 5.37568 14.6167V14.2167ZM7.12568 14.2167H5.37568V14.6167H7.12568V14.2167ZM7.5967 14.0011C7.46842 14.1416 7.29853 14.2167 7.12568 14.2167V14.6167C7.41697 14.6167 7.6922 14.4898 7.8921 14.2708L7.5967 14.0011ZM7.80068 13.4583C7.80068 13.665 7.72555 13.86 7.5967 14.0011L7.8921 14.2708C8.09145 14.0525 8.20068 13.76 8.20068 13.4583H7.80068ZM7.5967 12.9155C7.72555 13.0567 7.80068 13.2516 7.80068 13.4583H8.20068C8.20068 13.1567 8.09145 12.8642 7.8921 12.6458L7.5967 12.9155ZM7.12568 12.7C7.29853 12.7 7.46842 12.775 7.5967 12.9155L7.8921 12.6458C7.6922 12.4269 7.41697 12.3 7.12568 12.3V12.7ZM7.12568 17.0891H5.37568V17.4891H7.12568V17.0891ZM7.8921 17.4349C7.6922 17.216 7.41697 17.0891 7.12568 17.0891V17.4891C7.29853 17.4891 7.46842 17.5641 7.5967 17.7046L7.8921 17.4349ZM8.20068 18.2474C8.20068 17.9458 8.09145 17.6532 7.8921 17.4349L7.5967 17.7046C7.72555 17.8457 7.80068 18.0407 7.80068 18.2474H8.20068ZM7.8921 19.0599C8.09145 18.8416 8.20068 18.549 8.20068 18.2474H7.80068C7.80068 18.4541 7.72555 18.6491 7.5967 18.7902L7.8921 19.0599ZM7.12568 19.4057C7.41697 19.4057 7.6922 19.2788 7.8921 19.0599L7.5967 18.7902C7.46842 18.9307 7.29853 19.0057 7.12568 19.0057V19.4057ZM5.37568 19.4057H7.12568V19.0057H5.37568V19.4057ZM4.60927 19.0599C4.80917 19.2788 5.0844 19.4057 5.37568 19.4057V19.0057C5.20284 19.0057 5.03295 18.9307 4.90466 18.7902L4.60927 19.0599ZM4.30068 18.2474C4.30068 18.549 4.40992 18.8416 4.60927 19.0599L4.90466 18.7902C4.77582 18.6491 4.70068 18.4541 4.70068 18.2474H4.30068ZM4.60927 17.4349C4.40992 17.6532 4.30068 17.9458 4.30068 18.2474H4.70068C4.70068 18.0407 4.77582 17.8457 4.90466 17.7046L4.60927 17.4349ZM5.37568 17.0891C5.0844 17.0891 4.80917 17.216 4.60927 17.4349L4.90466 17.7046C5.03295 17.5641 5.20284 17.4891 5.37568 17.4891V17.0891ZM10.6257 12.7H12.3757V12.3H10.6257V12.7ZM10.1547 12.9155C10.2829 12.775 10.4528 12.7 10.6257 12.7V12.3C10.3344 12.3 10.0592 12.4269 9.85927 12.6458L10.1547 12.9155ZM9.95068 13.4583C9.95068 13.2516 10.0258 13.0567 10.1547 12.9155L9.85927 12.6458C9.65992 12.8642 9.55068 13.1567 9.55068 13.4583H9.95068ZM10.1547 14.0011C10.0258 13.86 9.95068 13.665 9.95068 13.4583H9.55068C9.55068 13.76 9.65992 14.0525 9.85927 14.2708L10.1547 14.0011ZM10.6257 14.2167C10.4528 14.2167 10.2829 14.1416 10.1547 14.0011L9.85927 14.2708C10.0592 14.4898 10.3344 14.6167 10.6257 14.6167V14.2167ZM12.3757 14.2167H10.6257V14.6167H12.3757V14.2167ZM12.8467 14.0011C12.7184 14.1416 12.5485 14.2167 12.3757 14.2167V14.6167C12.667 14.6167 12.9422 14.4898 13.1421 14.2708L12.8467 14.0011ZM13.0507 13.4583C13.0507 13.665 12.9755 13.86 12.8467 14.0011L13.1421 14.2708C13.3414 14.0525 13.4507 13.76 13.4507 13.4583H13.0507ZM12.8467 12.9155C12.9755 13.0567 13.0507 13.2516 13.0507 13.4583H13.4507C13.4507 13.1567 13.3414 12.8642 13.1421 12.6458L12.8467 12.9155ZM12.3757 12.7C12.5485 12.7 12.7184 12.775 12.8467 12.9155L13.1421 12.6458C12.9422 12.4269 12.667 12.3 12.3757 12.3V12.7ZM12.3757 17.0891H10.6257V17.4891H12.3757V17.0891ZM13.1421 17.4349C12.9422 17.216 12.667 17.0891 12.3757 17.0891V17.4891C12.5485 17.4891 12.7184 17.5641 12.8467 17.7046L13.1421 17.4349ZM13.4507 18.2474C13.4507 17.9458 13.3414 17.6532 13.1421 17.4349L12.8467 17.7046C12.9755 17.8457 13.0507 18.0407 13.0507 18.2474H13.4507ZM13.1421 19.0599C13.3414 18.8416 13.4507 18.549 13.4507 18.2474H13.0507C13.0507 18.4541 12.9755 18.6491 12.8467 18.7902L13.1421 19.0599ZM12.3757 19.4057C12.667 19.4057 12.9422 19.2788 13.1421 19.0599L12.8467 18.7902C12.7184 18.9307 12.5485 19.0057 12.3757 19.0057V19.4057ZM10.6257 19.4057H12.3757V19.0057H10.6257V19.4057ZM9.85927 19.0599C10.0592 19.2788 10.3344 19.4057 10.6257 19.4057V19.0057C10.4528 19.0057 10.2829 18.9307 10.1547 18.7902L9.85927 19.0599ZM9.55068 18.2474C9.55068 18.549 9.65992 18.8416 9.85927 19.0599L10.1547 18.7902C10.0258 18.6491 9.95068 18.4541 9.95068 18.2474H9.55068ZM9.85927 17.4349C9.65992 17.6532 9.55068 17.9458 9.55068 18.2474H9.95068C9.95068 18.0407 10.0258 17.8457 10.1547 17.7046L9.85927 17.4349ZM10.6257 17.0891C10.3344 17.0891 10.0592 17.216 9.85927 17.4349L10.1547 17.7046C10.2829 17.5641 10.4528 17.4891 10.6257 17.4891V17.0891ZM15.8757 12.7H17.6257V12.3H15.8757V12.7ZM15.4047 12.9155C15.5329 12.775 15.7028 12.7 15.8757 12.7V12.3C15.5844 12.3 15.3092 12.4269 15.1093 12.6458L15.4047 12.9155ZM15.2007 13.4583C15.2007 13.2516 15.2758 13.0567 15.4047 12.9155L15.1093 12.6458C14.9099 12.8642 14.8007 13.1567 14.8007 13.4583H15.2007ZM15.4047 14.0011C15.2758 13.86 15.2007 13.665 15.2007 13.4583H14.8007C14.8007 13.76 14.9099 14.0525 15.1093 14.2708L15.4047 14.0011ZM15.8757 14.2167C15.7028 14.2167 15.5329 14.1416 15.4047 14.0011L15.1093 14.2708C15.3092 14.4898 15.5844 14.6167 15.8757 14.6167V14.2167ZM17.6257 14.2167H15.8757V14.6167H17.6257V14.2167ZM18.0967 14.0011C17.9684 14.1416 17.7985 14.2167 17.6257 14.2167V14.6167C17.917 14.6167 18.1922 14.4898 18.3921 14.2708L18.0967 14.0011ZM18.3007 13.4583C18.3007 13.665 18.2255 13.86 18.0967 14.0011L18.3921 14.2708C18.5914 14.0525 18.7007 13.76 18.7007 13.4583H18.3007ZM18.0967 12.9155C18.2255 13.0567 18.3007 13.2516 18.3007 13.4583H18.7007C18.7007 13.1567 18.5914 12.8642 18.3921 12.6458L18.0967 12.9155ZM17.6257 12.7C17.7985 12.7 17.9684 12.775 18.0967 12.9155L18.3921 12.6458C18.1922 12.4269 17.917 12.3 17.6257 12.3V12.7ZM17.6257 17.0891H15.8757V17.4891H17.6257V17.0891ZM18.3921 17.4349C18.1922 17.216 17.917 17.0891 17.6257 17.0891V17.4891C17.7985 17.4891 17.9684 17.5641 18.0967 17.7046L18.3921 17.4349ZM18.7007 18.2474C18.7007 17.9458 18.5914 17.6532 18.3921 17.4349L18.0967 17.7046C18.2255 17.8457 18.3007 18.0407 18.3007 18.2474H18.7007ZM18.3921 19.0599C18.5914 18.8416 18.7007 18.549 18.7007 18.2474H18.3007C18.3007 18.4541 18.2255 18.6491 18.0967 18.7902L18.3921 19.0599ZM17.6257 19.4057C17.917 19.4057 18.1922 19.2788 18.3921 19.0599L18.0967 18.7902C17.9684 18.9307 17.7985 19.0057 17.6257 19.0057V19.4057ZM15.8757 19.4057H17.6257V19.0057H15.8757V19.4057ZM15.1093 19.0599C15.3092 19.2788 15.5844 19.4057 15.8757 19.4057V19.0057C15.7028 19.0057 15.5329 18.9307 15.4047 18.7902L15.1093 19.0599ZM14.8007 18.2474C14.8007 18.549 14.9099 18.8416 15.1093 19.0599L15.4047 18.7902C15.2758 18.6491 15.2007 18.4541 15.2007 18.2474H14.8007ZM15.1093 17.4349C14.9099 17.6532 14.8007 17.9458 14.8007 18.2474H15.2007C15.2007 18.0407 15.2758 17.8457 15.4047 17.7046L15.1093 17.4349ZM15.8757 17.0891C15.5844 17.0891 15.3092 17.216 15.1093 17.4349L15.4047 17.7046C15.5329 17.5641 15.7028 17.4891 15.8757 17.4891V17.0891Z" fill="#1F263E"/>
</svg>
