<svg width="20" height="23" viewBox="0 0 20 23" fill="none" xmlns="http://www.w3.org/2000/svg">
<path d="M17.8571 11.4286H6.78571V6.82594C6.78571 5.05808 8.20089 3.58933 9.96875 3.57147C11.7545 3.55362 13.2143 5.00451 13.2143 6.78576V7.50004C13.2143 8.09379 13.692 8.57147 14.2857 8.57147H15.7143C16.308 8.57147 16.7857 8.09379 16.7857 7.50004V6.78576C16.7857 3.03576 13.7277 -0.0133489 9.97768 4.39517e-05C6.22768 0.0134368 3.21429 3.10272 3.21429 6.85272V11.4286H2.14286C0.959821 11.4286 0 12.3884 0 13.5715V20.7143C0 21.8974 0.959821 22.8572 2.14286 22.8572H17.8571C19.0402 22.8572 20 21.8974 20 20.7143V13.5715C20 12.3884 19.0402 11.4286 17.8571 11.4286ZM11.7857 18.2143C11.7857 19.2009 10.9866 20 10 20C9.01339 20 8.21429 19.2009 8.21429 18.2143V16.0715C8.21429 15.0849 9.01339 14.2858 10 14.2858C10.9866 14.2858 11.7857 15.0849 11.7857 16.0715V18.2143Z" fill="#FAFAFA"/>
</svg>
